<svg id="svg" version="1.1" xmlns="http://www.w3.org/2000/svg" xmlns:xlink="http://www.w3.org/1999/xlink" width="400" height="400" viewBox="0, 0, 400,400"><g id="svgg"><path id="path0" d="M0.000 200.000 L 0.000 400.000 79.167 400.000 C 142.109 400.000,158.381 399.898,158.567 399.500 C 158.753 399.100,158.847 399.100,159.033 399.500 C 159.891 401.339,159.999 396.716,159.988 358.500 C 159.980 332.805,159.834 317.242,159.605 317.634 C 159.316 318.129,158.756 318.229,157.068 318.089 C 155.723 317.977,154.799 318.078,154.628 318.355 C 154.476 318.600,153.296 318.800,152.000 318.800 C 150.706 318.800,149.536 318.980,149.400 319.200 C 149.264 319.420,148.274 319.600,147.200 319.600 C 146.126 319.600,145.136 319.780,145.000 320.000 C 144.864 320.220,143.874 320.400,142.800 320.400 C 141.726 320.400,140.750 320.557,140.631 320.750 C 140.512 320.942,139.466 321.206,138.307 321.336 C 137.148 321.466,135.390 321.742,134.400 321.949 C 133.410 322.156,131.610 322.522,130.400 322.762 C 129.190 323.002,127.480 323.357,126.600 323.551 C 125.720 323.745,123.560 324.209,121.800 324.582 C 120.040 324.955,116.350 325.810,113.600 326.482 C 98.924 330.067,97.152 328.628,91.587 308.600 C 87.313 293.217,84.188 282.035,83.204 278.600 C 82.763 277.060,81.859 273.820,81.196 271.400 C 79.297 264.474,79.126 263.861,78.800 262.800 C 78.631 262.250,78.294 261.080,78.050 260.200 C 75.014 249.223,73.720 244.584,73.142 242.600 C 72.950 241.940,71.713 237.530,70.394 232.800 C 67.785 223.446,67.272 221.620,66.743 219.800 C 66.551 219.140,65.494 215.360,64.394 211.400 C 62.389 204.182,61.788 202.034,61.148 199.800 C 58.925 192.040,58.907 191.825,60.421 190.880 C 61.789 190.025,62.674 190.672,65.688 194.729 C 69.678 200.100,83.414 218.524,98.994 239.400 C 116.282 262.566,118.729 265.010,128.753 269.118 C 132.335 270.585,132.264 270.653,132.543 265.500 C 132.677 263.025,132.963 258.660,133.178 255.800 C 133.890 246.332,134.430 239.065,134.810 233.800 C 135.017 230.940,135.363 226.260,135.579 223.400 C 135.794 220.540,136.139 215.472,136.346 212.138 C 136.750 205.595,137.234 203.882,138.737 203.668 C 139.835 203.512,141.200 204.617,141.200 205.662 C 141.200 206.068,141.380 206.400,141.600 206.400 C 141.820 206.400,142.000 206.672,142.000 207.004 C 142.000 207.337,142.378 208.462,142.840 209.504 C 143.302 210.547,143.863 211.850,144.087 212.400 C 144.310 212.950,144.652 213.713,144.847 214.095 C 145.041 214.477,145.200 215.141,145.200 215.571 C 145.200 216.001,145.380 216.464,145.600 216.600 C 145.820 216.736,146.000 217.197,146.000 217.624 C 146.000 218.051,146.180 218.400,146.400 218.400 C 146.620 218.400,146.800 218.755,146.800 219.188 C 146.800 219.621,147.119 220.566,147.508 221.288 C 147.898 222.010,148.453 223.320,148.741 224.200 C 149.030 225.080,149.500 226.340,149.786 227.000 C 151.037 229.892,151.709 231.467,152.087 232.400 C 152.311 232.950,152.652 233.713,152.847 234.095 C 153.041 234.477,153.200 235.152,153.200 235.595 C 153.200 236.038,153.380 236.400,153.600 236.400 C 153.820 236.400,154.000 236.749,154.000 237.176 C 154.000 237.603,154.180 238.064,154.400 238.200 C 154.620 238.336,154.800 238.887,154.800 239.424 C 154.800 239.961,154.980 240.400,155.200 240.400 C 155.420 240.400,155.600 240.749,155.600 241.176 C 155.600 241.603,155.780 242.064,156.000 242.200 C 156.220 242.336,156.400 242.887,156.400 243.424 C 156.400 243.961,156.580 244.400,156.800 244.400 C 157.020 244.400,157.200 244.760,157.200 245.200 C 157.200 245.640,157.380 246.000,157.600 246.000 C 157.820 246.000,158.000 246.521,158.000 247.157 C 158.000 247.850,158.257 248.413,158.642 248.561 C 159.008 248.701,159.185 249.063,159.054 249.403 C 158.928 249.732,158.988 250.000,159.187 250.000 C 159.386 250.000,159.622 250.585,159.711 251.300 C 159.799 252.015,159.901 195.765,159.936 126.300 L 160.000 0.000 80.000 0.000 L 0.000 0.000 0.000 200.000 M60.069 155.060 C 73.771 159.542,72.443 179.060,58.237 181.995 C 45.612 184.603,36.891 168.076,45.927 158.666 C 49.512 154.933,55.225 153.476,60.069 155.060 M142.292 176.664 C 144.383 177.651,146.251 179.503,147.193 181.526 C 147.468 182.117,147.852 182.913,148.047 183.295 C 148.532 184.248,148.494 189.495,148.000 189.800 C 147.780 189.936,147.600 190.470,147.600 190.987 C 147.600 192.294,143.865 196.061,141.504 197.137 C 137.143 199.123,130.420 197.326,128.056 193.541 C 126.135 190.465,125.937 189.834,125.937 186.794 C 125.937 178.002,134.235 172.862,142.292 176.664 " stroke="none" fill="#fceab9" fill-rule="evenodd"></path><path id="path1" d="M198.000 73.256 C 194.688 74.719,193.457 75.491,192.056 76.986 C 181.510 88.238,194.373 105.211,208.200 98.290 C 217.882 93.443,217.523 78.972,207.600 74.084 C 205.148 72.876,199.887 72.422,198.000 73.256 M200.510 111.500 C 200.260 112.765,199.856 115.150,199.612 116.800 C 199.196 119.615,198.835 121.928,197.986 127.200 C 197.791 128.410,197.435 130.660,197.195 132.200 C 196.489 136.737,195.964 140.053,195.581 142.400 C 195.383 143.610,195.027 145.950,194.789 147.600 C 194.551 149.250,194.196 151.500,194.000 152.600 C 193.804 153.700,193.447 155.950,193.206 157.600 C 192.798 160.402,192.459 162.575,191.586 168.000 C 191.391 169.210,191.035 171.460,190.795 173.000 C 190.089 177.537,189.564 180.853,189.181 183.200 C 188.983 184.410,188.627 186.750,188.389 188.400 C 188.151 190.050,187.796 192.300,187.600 193.400 C 187.404 194.500,187.047 196.750,186.806 198.400 C 186.263 202.126,185.654 205.983,185.195 208.600 C 185.001 209.700,184.647 211.950,184.406 213.600 C 183.998 216.402,183.659 218.575,182.786 224.000 C 182.591 225.210,182.235 227.460,181.995 229.000 C 179.614 244.290,179.289 246.063,178.323 249.000 C 175.508 257.557,166.043 268.822,164.375 265.600 C 163.697 264.290,162.400 261.190,162.400 260.879 C 162.400 260.698,162.040 259.805,161.600 258.894 C 161.160 257.984,160.800 257.048,160.800 256.814 C 160.800 256.580,160.641 256.077,160.447 255.695 C 160.116 255.045,159.779 254.247,158.800 251.800 C 158.580 251.250,158.220 250.350,158.000 249.800 C 157.780 249.250,157.420 248.350,157.200 247.800 C 156.980 247.250,156.636 246.395,156.436 245.900 C 156.236 245.405,154.057 239.870,151.593 233.600 C 149.129 227.330,146.773 221.437,146.357 220.504 C 145.940 219.572,145.600 218.661,145.600 218.479 C 145.600 218.298,145.240 217.405,144.800 216.494 C 144.360 215.584,144.000 214.648,144.000 214.414 C 144.000 214.180,143.841 213.677,143.647 213.295 C 143.316 212.645,142.979 211.847,142.000 209.400 C 141.780 208.850,141.420 207.950,141.200 207.400 C 140.256 205.041,139.825 204.400,139.181 204.400 C 137.617 204.400,137.649 204.151,135.606 232.400 C 134.808 243.428,133.761 257.267,133.144 264.932 L 132.667 270.864 131.233 270.599 C 126.759 269.770,119.855 265.463,114.582 260.208 C 112.192 257.827,110.352 255.514,103.600 246.400 C 92.999 232.093,81.381 216.487,80.670 215.600 C 80.405 215.270,79.744 214.370,79.200 213.600 C 78.656 212.830,77.996 211.930,77.733 211.600 C 76.943 210.611,65.162 194.734,63.856 192.900 C 62.931 191.600,62.385 191.200,61.537 191.200 C 59.413 191.200,59.424 192.720,61.605 200.200 C 61.797 200.860,62.145 202.075,62.377 202.900 C 62.610 203.725,62.980 205.030,63.200 205.800 C 63.420 206.570,63.764 207.785,63.964 208.500 C 64.164 209.215,64.710 211.150,65.178 212.800 C 66.123 216.133,66.884 218.854,67.835 222.300 C 68.643 225.228,69.104 226.868,69.577 228.500 C 70.110 230.333,70.860 232.998,72.364 238.400 C 72.823 240.050,73.575 242.750,74.036 244.400 C 74.496 246.050,75.046 248.030,75.259 248.800 C 75.471 249.570,75.815 250.785,76.023 251.500 C 76.230 252.215,76.564 253.385,76.764 254.100 C 76.964 254.815,77.510 256.750,77.978 258.400 C 78.923 261.733,79.684 264.454,80.635 267.900 C 81.354 270.507,81.821 272.175,82.400 274.200 C 82.620 274.970,82.980 276.230,83.200 277.000 C 83.779 279.025,84.246 280.693,84.965 283.300 C 85.916 286.746,86.677 289.467,87.622 292.800 C 88.090 294.450,88.636 296.385,88.836 297.100 C 89.275 298.666,89.866 300.737,90.377 302.500 C 90.758 303.810,91.004 304.692,92.165 308.900 C 92.514 310.165,93.086 312.235,93.435 313.500 C 93.784 314.765,94.224 316.340,94.412 317.000 C 94.601 317.660,94.927 318.879,95.137 319.709 C 96.885 326.606,102.573 328.645,112.873 326.067 C 115.363 325.444,118.390 324.715,119.600 324.447 C 120.810 324.180,122.520 323.800,123.400 323.604 C 131.242 321.858,136.866 320.709,142.800 319.643 C 144.010 319.426,145.990 319.065,147.200 318.842 C 149.305 318.454,151.677 318.049,156.700 317.221 C 157.965 317.012,160.440 316.641,162.200 316.397 C 163.960 316.152,166.480 315.793,167.800 315.599 C 170.065 315.266,173.251 314.926,182.600 314.019 C 193.103 313.001,210.688 313.166,223.400 314.402 C 234.945 315.525,249.595 317.703,260.800 319.963 C 261.790 320.163,263.680 320.539,265.000 320.800 C 266.320 321.061,268.120 321.421,269.000 321.600 C 269.880 321.779,271.590 322.122,272.800 322.362 C 274.010 322.602,275.810 322.988,276.800 323.221 C 277.790 323.453,279.320 323.803,280.200 323.999 C 284.177 324.881,288.526 325.911,290.600 326.461 C 299.565 328.840,305.417 326.182,307.266 318.894 C 307.475 318.072,307.815 316.815,308.023 316.100 C 308.230 315.385,308.580 314.170,308.800 313.400 C 309.020 312.630,309.380 311.370,309.600 310.600 C 309.820 309.830,310.180 308.570,310.400 307.800 C 310.620 307.030,310.968 305.815,311.172 305.100 C 311.377 304.385,311.908 302.450,312.353 300.800 C 312.797 299.150,313.546 296.450,314.016 294.800 C 314.487 293.150,315.036 291.215,315.236 290.500 C 315.436 289.785,315.780 288.570,316.000 287.800 C 316.220 287.030,316.564 285.815,316.764 285.100 C 316.964 284.385,317.516 282.450,317.991 280.800 C 318.466 279.150,319.010 277.170,319.200 276.400 C 319.391 275.630,319.729 274.370,319.951 273.600 C 320.173 272.830,320.545 271.525,320.777 270.700 C 321.010 269.875,321.390 268.525,321.623 267.700 C 321.855 266.875,322.205 265.660,322.400 265.000 C 322.595 264.340,322.945 263.125,323.177 262.300 C 323.410 261.475,323.768 260.215,323.972 259.500 C 324.177 258.785,324.708 256.850,325.153 255.200 C 325.597 253.550,326.346 250.850,326.816 249.200 C 328.267 244.116,328.697 242.596,329.564 239.500 C 329.764 238.785,330.310 236.850,330.777 235.200 C 331.800 231.586,332.908 227.644,334.036 223.600 C 335.292 219.096,335.563 218.130,336.000 216.600 C 336.220 215.830,336.580 214.570,336.800 213.800 C 337.379 211.775,337.846 210.107,338.565 207.500 C 338.914 206.235,339.486 204.165,339.835 202.900 C 340.184 201.635,340.646 199.970,340.862 199.200 C 341.079 198.430,341.357 197.350,341.482 196.800 C 341.606 196.250,341.843 195.620,342.008 195.400 C 342.838 194.298,342.843 191.763,342.018 191.016 C 340.726 189.847,339.873 190.607,335.000 197.268 C 332.580 200.576,330.414 203.489,330.187 203.742 C 329.960 203.994,329.332 204.830,328.793 205.600 C 328.253 206.370,327.593 207.270,327.326 207.600 C 326.887 208.142,324.758 211.010,313.667 226.000 C 309.223 232.007,307.111 234.841,306.520 235.591 C 306.256 235.926,303.842 239.170,301.155 242.800 C 289.220 258.927,287.857 260.524,282.630 264.506 C 280.423 266.187,272.330 270.276,270.820 270.473 C 269.552 270.638,269.336 269.715,268.788 261.800 C 268.559 258.500,268.202 253.550,267.993 250.800 C 267.785 248.050,267.431 243.325,267.207 240.300 C 266.519 231.001,266.032 224.454,265.580 218.400 C 265.342 215.210,265.024 210.909,264.874 208.842 C 264.581 204.828,263.973 203.717,262.557 204.610 C 262.203 204.833,259.487 211.132,256.521 218.608 C 250.432 233.956,250.436 233.945,249.953 234.895 C 249.759 235.277,249.600 235.774,249.600 235.999 C 249.600 236.224,249.260 237.172,248.843 238.104 C 248.427 239.037,246.066 244.930,243.596 251.200 C 238.030 265.327,237.565 266.400,237.011 266.400 C 236.384 266.400,232.378 262.950,230.510 260.800 C 225.669 255.230,223.498 250.073,222.009 240.600 C 221.767 239.060,221.401 236.810,221.195 235.600 C 220.990 234.390,220.627 232.050,220.389 230.400 C 220.151 228.750,219.796 226.500,219.600 225.400 C 219.404 224.300,219.047 222.050,218.806 220.400 C 218.398 217.598,218.059 215.425,217.186 210.000 C 216.991 208.790,216.635 206.540,216.395 205.000 C 215.689 200.463,215.164 197.147,214.781 194.800 C 214.583 193.590,214.227 191.250,213.989 189.600 C 213.751 187.950,213.394 185.700,213.195 184.600 C 212.996 183.500,212.457 180.080,211.997 177.000 C 211.537 173.920,210.996 170.410,210.796 169.200 C 210.595 167.990,210.235 165.740,209.995 164.200 C 209.289 159.663,208.764 156.347,208.381 154.000 C 208.183 152.790,207.827 150.450,207.589 148.800 C 207.351 147.150,206.996 144.900,206.800 143.800 C 206.604 142.700,206.249 140.450,206.011 138.800 C 205.773 137.150,205.411 134.810,205.205 133.600 C 205.000 132.390,204.634 129.870,204.391 128.000 C 204.149 126.130,203.792 123.790,203.598 122.800 C 203.404 121.810,202.831 118.345,202.324 115.100 C 201.295 108.504,201.157 108.230,200.510 111.500 M343.200 154.952 C 327.406 158.959,329.789 181.735,346.000 181.713 C 362.465 181.691,364.465 158.558,348.323 154.833 C 346.131 154.327,345.613 154.339,343.200 154.952 M52.600 155.146 C 47.954 156.371,44.981 159.229,42.851 164.519 C 38.927 174.261,51.021 185.114,61.000 180.806 C 76.065 174.302,68.428 150.973,52.600 155.146 M132.661 176.975 C 122.215 182.092,125.445 197.000,137.000 197.000 C 140.475 197.000,142.158 196.430,144.113 194.591 C 152.831 186.389,143.317 171.754,132.661 176.975 M262.600 178.166 C 250.095 181.231,251.850 199.200,264.653 199.200 C 277.066 199.200,279.232 180.644,267.104 178.203 C 266.387 178.058,265.530 177.881,265.200 177.808 C 264.870 177.736,263.700 177.897,262.600 178.166 " stroke="none" fill="#fc64c4" fill-rule="evenodd"></path><path id="path2" d="M296.800 0.367 C 296.800 0.568,297.025 0.825,297.300 0.936 C 297.676 1.089,297.652 1.245,297.200 1.570 C 296.667 1.952,296.667 2.044,297.200 2.400 C 297.733 2.756,297.733 2.844,297.200 3.200 C 296.667 3.556,296.667 3.644,297.200 4.000 C 297.733 4.356,297.733 4.444,297.200 4.800 C 296.667 5.156,296.667 5.244,297.200 5.600 C 297.733 5.956,297.733 6.044,297.200 6.400 C 296.667 6.756,296.667 6.844,297.200 7.200 C 297.733 7.556,297.733 7.644,297.200 8.000 C 296.667 8.356,296.667 8.444,297.200 8.800 C 297.733 9.156,297.733 9.244,297.200 9.600 C 296.667 9.956,296.667 10.044,297.200 10.400 C 297.733 10.756,297.733 10.844,297.200 11.200 C 296.667 11.556,296.667 11.644,297.200 12.000 C 297.733 12.356,297.733 12.444,297.200 12.800 C 296.667 13.156,296.667 13.244,297.200 13.600 C 297.733 13.956,297.733 14.044,297.200 14.400 C 296.667 14.756,296.667 14.844,297.200 15.200 C 297.733 15.556,297.733 15.644,297.200 16.000 C 296.667 16.356,296.667 16.444,297.200 16.800 C 297.733 17.156,297.733 17.244,297.200 17.600 C 296.667 17.956,296.667 18.044,297.200 18.400 C 297.733 18.756,297.733 18.844,297.200 19.200 C 296.667 19.556,296.667 19.644,297.200 20.000 C 297.733 20.356,297.733 20.444,297.200 20.800 C 296.667 21.156,296.667 21.244,297.200 21.600 C 297.733 21.956,297.733 22.044,297.200 22.400 C 296.667 22.756,296.667 22.844,297.200 23.200 C 297.733 23.556,297.733 23.644,297.200 24.000 C 296.667 24.356,296.667 24.444,297.200 24.800 C 297.733 25.156,297.733 25.244,297.200 25.600 C 296.667 25.956,296.667 26.044,297.200 26.400 C 297.733 26.756,297.733 26.844,297.200 27.200 C 296.667 27.556,296.667 27.644,297.200 28.000 C 297.733 28.356,297.733 28.444,297.200 28.800 C 296.667 29.156,296.667 29.244,297.200 29.600 C 297.733 29.956,297.733 30.044,297.200 30.400 C 296.667 30.756,296.667 30.844,297.200 31.200 C 297.733 31.556,297.733 31.644,297.200 32.000 C 296.667 32.356,296.667 32.444,297.200 32.800 C 297.733 33.156,297.733 33.244,297.200 33.600 C 296.667 33.956,296.667 34.044,297.200 34.400 C 297.733 34.756,297.733 34.844,297.200 35.200 C 296.667 35.556,296.667 35.644,297.200 36.000 C 297.733 36.356,297.733 36.444,297.200 36.800 C 296.667 37.156,296.667 37.244,297.200 37.600 C 297.733 37.956,297.733 38.044,297.200 38.400 C 296.667 38.756,296.667 38.844,297.200 39.200 C 297.733 39.556,297.733 39.644,297.200 40.000 C 296.667 40.356,296.667 40.444,297.200 40.800 C 297.733 41.156,297.733 41.244,297.200 41.600 C 296.667 41.956,296.667 42.044,297.200 42.400 C 297.733 42.756,297.733 42.844,297.200 43.200 C 296.667 43.556,296.667 43.644,297.200 44.000 C 297.733 44.356,297.733 44.444,297.200 44.800 C 296.667 45.156,296.667 45.244,297.200 45.600 C 297.733 45.956,297.733 46.044,297.200 46.400 C 296.667 46.756,296.667 46.844,297.200 47.200 C 297.733 47.556,297.733 47.644,297.200 48.000 C 296.667 48.356,296.667 48.444,297.200 48.800 C 297.733 49.156,297.733 49.244,297.200 49.600 C 296.667 49.956,296.667 50.044,297.200 50.400 C 297.733 50.756,297.733 50.844,297.200 51.200 C 296.667 51.556,296.667 51.644,297.200 52.000 C 297.733 52.356,297.733 52.444,297.200 52.800 C 296.667 53.156,296.667 53.244,297.200 53.600 C 297.733 53.956,297.733 54.044,297.200 54.400 C 296.667 54.756,296.667 54.844,297.200 55.200 C 297.733 55.556,297.733 55.644,297.200 56.000 C 296.667 56.356,296.667 56.444,297.200 56.800 C 297.733 57.156,297.733 57.244,297.200 57.600 C 296.667 57.956,296.667 58.044,297.200 58.400 C 297.733 58.756,297.733 58.844,297.200 59.200 C 296.667 59.556,296.667 59.644,297.200 60.000 C 297.733 60.356,297.733 60.444,297.200 60.800 C 296.667 61.156,296.667 61.244,297.200 61.600 C 297.733 61.956,297.733 62.044,297.200 62.400 C 296.667 62.756,296.667 62.844,297.200 63.200 C 297.733 63.556,297.733 63.644,297.200 64.000 C 296.667 64.356,296.667 64.444,297.200 64.800 C 297.733 65.156,297.733 65.244,297.200 65.600 C 296.667 65.956,296.667 66.044,297.200 66.400 C 297.733 66.756,297.733 66.844,297.200 67.200 C 296.667 67.556,296.667 67.644,297.200 68.000 C 297.733 68.356,297.733 68.444,297.200 68.800 C 296.667 69.156,296.667 69.244,297.200 69.600 C 297.733 69.956,297.733 70.044,297.200 70.400 C 296.667 70.756,296.667 70.844,297.200 71.200 C 297.733 71.556,297.733 71.644,297.200 72.000 C 296.667 72.356,296.667 72.444,297.200 72.800 C 297.733 73.156,297.733 73.244,297.200 73.600 C 296.667 73.956,296.667 74.044,297.200 74.400 C 297.733 74.756,297.733 74.844,297.200 75.200 C 296.667 75.556,296.667 75.644,297.200 76.000 C 297.733 76.356,297.733 76.444,297.200 76.800 C 296.667 77.156,296.667 77.244,297.200 77.600 C 297.733 77.956,297.733 78.044,297.200 78.400 C 296.667 78.756,296.667 78.844,297.200 79.200 C 297.733 79.556,297.733 79.644,297.200 80.000 C 296.667 80.356,296.667 80.444,297.200 80.800 C 297.733 81.156,297.733 81.244,297.200 81.600 C 296.667 81.956,296.667 82.044,297.200 82.400 C 297.733 82.756,297.733 82.844,297.200 83.200 C 296.667 83.556,296.667 83.644,297.200 84.000 C 297.733 84.356,297.733 84.444,297.200 84.800 C 296.667 85.156,296.667 85.244,297.200 85.600 C 297.733 85.956,297.733 86.044,297.200 86.400 C 296.667 86.756,296.667 86.844,297.200 87.200 C 297.733 87.556,297.733 87.644,297.200 88.000 C 296.667 88.356,296.667 88.444,297.200 88.800 C 297.733 89.156,297.733 89.244,297.200 89.600 C 296.667 89.956,296.667 90.044,297.200 90.400 C 297.733 90.756,297.733 90.844,297.200 91.200 C 296.667 91.556,296.667 91.644,297.200 92.000 C 297.733 92.356,297.733 92.444,297.200 92.800 C 296.667 93.156,296.667 93.244,297.200 93.600 C 297.733 93.956,297.733 94.044,297.200 94.400 C 296.667 94.756,296.667 94.844,297.200 95.200 C 297.733 95.556,297.733 95.644,297.200 96.000 C 296.667 96.356,296.667 96.444,297.200 96.800 C 297.733 97.156,297.733 97.244,297.200 97.600 C 296.667 97.956,296.667 98.044,297.200 98.400 C 297.733 98.756,297.733 98.844,297.200 99.200 C 296.667 99.556,296.667 99.644,297.200 100.000 C 297.733 100.356,297.733 100.444,297.200 100.800 C 296.667 101.156,296.667 101.244,297.200 101.600 C 297.733 101.956,297.733 102.044,297.200 102.400 C 296.667 102.756,296.667 102.844,297.200 103.200 C 297.733 103.556,297.733 103.644,297.200 104.000 C 296.667 104.356,296.667 104.444,297.200 104.800 C 297.733 105.156,297.733 105.244,297.200 105.600 C 296.667 105.956,296.667 106.044,297.200 106.400 C 297.733 106.756,297.733 106.844,297.200 107.200 C 296.667 107.556,296.667 107.644,297.200 108.000 C 297.733 108.356,297.733 108.444,297.200 108.800 C 296.667 109.156,296.667 109.244,297.200 109.600 C 297.733 109.956,297.733 110.044,297.200 110.400 C 296.667 110.756,296.667 110.844,297.200 111.200 C 297.733 111.556,297.733 111.644,297.200 112.000 C 296.667 112.356,296.667 112.444,297.200 112.800 C 297.733 113.156,297.733 113.244,297.200 113.600 C 296.667 113.956,296.667 114.044,297.200 114.400 C 297.733 114.756,297.733 114.844,297.200 115.200 C 296.667 115.556,296.667 115.644,297.200 116.000 C 297.733 116.356,297.733 116.444,297.200 116.800 C 296.667 117.156,296.667 117.244,297.200 117.600 C 297.733 117.956,297.733 118.044,297.200 118.400 C 296.667 118.756,296.667 118.844,297.200 119.200 C 297.733 119.556,297.733 119.644,297.200 120.000 C 296.667 120.356,296.667 120.444,297.200 120.800 C 297.733 121.156,297.733 121.244,297.200 121.600 C 296.667 121.956,296.667 122.044,297.200 122.400 C 297.733 122.756,297.733 122.844,297.200 123.200 C 296.667 123.556,296.667 123.644,297.200 124.000 C 297.733 124.356,297.733 124.444,297.200 124.800 C 296.667 125.156,296.667 125.244,297.200 125.600 C 297.733 125.956,297.733 126.044,297.200 126.400 C 296.667 126.756,296.667 126.844,297.200 127.200 C 297.733 127.556,297.733 127.644,297.200 128.000 C 296.667 128.356,296.667 128.444,297.200 128.800 C 297.733 129.156,297.733 129.244,297.200 129.600 C 296.667 129.956,296.667 130.044,297.200 130.400 C 297.733 130.756,297.733 130.844,297.200 131.200 C 296.667 131.556,296.667 131.644,297.200 132.000 C 297.733 132.356,297.733 132.444,297.200 132.800 C 296.667 133.156,296.667 133.244,297.200 133.600 C 297.733 133.956,297.733 134.044,297.200 134.400 C 296.667 134.756,296.667 134.844,297.200 135.200 C 297.733 135.556,297.733 135.644,297.200 136.000 C 296.667 136.356,296.667 136.444,297.200 136.800 C 297.733 137.156,297.733 137.244,297.200 137.600 C 296.667 137.956,296.667 138.044,297.200 138.400 C 297.733 138.756,297.733 138.844,297.200 139.200 C 296.667 139.556,296.667 139.644,297.200 140.000 C 297.733 140.356,297.733 140.444,297.200 140.800 C 296.667 141.156,296.667 141.244,297.200 141.600 C 297.733 141.956,297.733 142.044,297.200 142.400 C 296.667 142.756,296.667 142.844,297.200 143.200 C 297.733 143.556,297.733 143.644,297.200 144.000 C 296.667 144.356,296.667 144.444,297.200 144.800 C 297.733 145.156,297.733 145.244,297.200 145.600 C 296.667 145.956,296.667 146.044,297.200 146.400 C 297.733 146.756,297.733 146.844,297.200 147.200 C 296.667 147.556,296.667 147.644,297.200 148.000 C 297.733 148.356,297.733 148.444,297.200 148.800 C 296.667 149.156,296.667 149.244,297.200 149.600 C 297.733 149.956,297.733 150.044,297.200 150.400 C 296.667 150.756,296.667 150.844,297.200 151.200 C 297.733 151.556,297.733 151.644,297.200 152.000 C 296.667 152.356,296.667 152.444,297.200 152.800 C 297.733 153.156,297.733 153.244,297.200 153.600 C 296.667 153.956,296.667 154.044,297.200 154.400 C 297.733 154.756,297.733 154.844,297.200 155.200 C 296.667 155.556,296.667 155.644,297.200 156.000 C 297.733 156.356,297.733 156.444,297.200 156.800 C 296.667 157.156,296.667 157.244,297.200 157.600 C 297.733 157.956,297.733 158.044,297.200 158.400 C 296.667 158.756,296.667 158.844,297.200 159.200 C 297.733 159.556,297.733 159.644,297.200 160.000 C 296.667 160.356,296.667 160.444,297.200 160.800 C 297.733 161.156,297.733 161.244,297.200 161.600 C 296.667 161.956,296.667 162.044,297.200 162.400 C 297.733 162.756,297.733 162.844,297.200 163.200 C 296.667 163.556,296.667 163.644,297.200 164.000 C 297.733 164.356,297.733 164.444,297.200 164.800 C 296.667 165.156,296.667 165.244,297.200 165.600 C 297.733 165.956,297.733 166.044,297.200 166.400 C 296.667 166.756,296.667 166.844,297.200 167.200 C 297.733 167.556,297.733 167.644,297.200 168.000 C 296.667 168.356,296.667 168.444,297.200 168.800 C 297.733 169.156,297.733 169.244,297.200 169.600 C 296.667 169.956,296.667 170.044,297.200 170.400 C 297.733 170.756,297.733 170.844,297.200 171.200 C 296.667 171.556,296.667 171.644,297.200 172.000 C 297.733 172.356,297.733 172.444,297.200 172.800 C 296.667 173.156,296.667 173.244,297.200 173.600 C 297.733 173.956,297.733 174.044,297.200 174.400 C 296.667 174.756,296.667 174.844,297.200 175.200 C 297.733 175.556,297.733 175.644,297.200 176.000 C 296.667 176.356,296.667 176.444,297.200 176.800 C 297.733 177.156,297.733 177.244,297.200 177.600 C 296.667 177.956,296.667 178.044,297.200 178.400 C 297.733 178.756,297.733 178.844,297.200 179.200 C 296.667 179.556,296.667 179.644,297.200 180.000 C 297.733 180.356,297.733 180.444,297.200 180.800 C 296.667 181.156,296.667 181.244,297.200 181.600 C 297.733 181.956,297.733 182.044,297.200 182.400 C 296.667 182.756,296.667 182.844,297.200 183.200 C 297.733 183.556,297.733 183.644,297.200 184.000 C 296.667 184.356,296.667 184.444,297.200 184.800 C 297.733 185.156,297.733 185.244,297.200 185.600 C 296.667 185.956,296.667 186.044,297.200 186.400 C 297.733 186.756,297.733 186.844,297.200 187.200 C 296.667 187.556,296.667 187.644,297.200 188.000 C 297.733 188.356,297.733 188.444,297.200 188.800 C 296.667 189.156,296.667 189.244,297.200 189.600 C 297.733 189.956,297.733 190.044,297.200 190.400 C 296.667 190.756,296.667 190.844,297.200 191.200 C 297.733 191.556,297.733 191.644,297.200 192.000 C 296.667 192.356,296.667 192.444,297.200 192.800 C 297.733 193.156,297.733 193.244,297.200 193.600 C 296.667 193.956,296.667 194.044,297.200 194.400 C 297.733 194.756,297.733 194.844,297.200 195.200 C 296.667 195.556,296.667 195.644,297.200 196.000 C 297.733 196.356,297.733 196.444,297.200 196.800 C 296.667 197.156,296.667 197.244,297.200 197.600 C 297.733 197.956,297.733 198.044,297.200 198.400 C 296.667 198.756,296.667 198.844,297.200 199.200 C 297.733 199.556,297.733 199.644,297.200 200.000 C 296.667 200.356,296.667 200.444,297.200 200.800 C 297.733 201.156,297.733 201.244,297.200 201.600 C 296.667 201.956,296.667 202.044,297.200 202.400 C 297.733 202.756,297.733 202.844,297.200 203.200 C 296.667 203.556,296.667 203.644,297.200 204.000 C 297.733 204.356,297.733 204.444,297.200 204.800 C 296.667 205.156,296.667 205.244,297.200 205.600 C 297.733 205.956,297.733 206.044,297.200 206.400 C 296.667 206.756,296.667 206.844,297.200 207.200 C 297.733 207.556,297.733 207.644,297.200 208.000 C 296.667 208.356,296.667 208.444,297.200 208.800 C 297.733 209.156,297.733 209.244,297.200 209.600 C 296.667 209.956,296.667 210.044,297.200 210.400 C 297.733 210.756,297.733 210.844,297.200 211.200 C 296.667 211.556,296.667 211.644,297.200 212.000 C 297.733 212.356,297.733 212.444,297.200 212.800 C 296.667 213.156,296.667 213.244,297.200 213.600 C 297.733 213.956,297.733 214.044,297.200 214.400 C 296.667 214.756,296.667 214.844,297.200 215.200 C 297.733 215.556,297.733 215.644,297.200 216.000 C 296.667 216.356,296.667 216.444,297.200 216.800 C 297.733 217.156,297.733 217.244,297.200 217.600 C 296.667 217.956,296.667 218.044,297.200 218.400 C 297.733 218.756,297.733 218.844,297.200 219.200 C 296.667 219.556,296.667 219.644,297.200 220.000 C 297.733 220.356,297.733 220.444,297.200 220.800 C 296.667 221.156,296.667 221.244,297.200 221.600 C 297.733 221.956,297.733 222.044,297.200 222.400 C 296.667 222.756,296.667 222.844,297.200 223.200 C 297.733 223.556,297.733 223.644,297.200 224.000 C 296.667 224.356,296.667 224.444,297.200 224.800 C 297.733 225.156,297.733 225.244,297.200 225.600 C 296.667 225.956,296.667 226.044,297.200 226.400 C 297.733 226.756,297.733 226.844,297.200 227.200 C 296.667 227.556,296.667 227.644,297.200 228.000 C 297.733 228.356,297.733 228.444,297.200 228.800 C 296.667 229.156,296.667 229.244,297.200 229.600 C 297.733 229.956,297.733 230.044,297.200 230.400 C 296.667 230.756,296.667 230.844,297.200 231.200 C 297.733 231.556,297.733 231.644,297.200 232.000 C 296.667 232.356,296.667 232.444,297.200 232.800 C 297.733 233.156,297.733 233.244,297.200 233.600 C 296.667 233.956,296.667 234.044,297.200 234.400 C 297.733 234.756,297.733 234.844,297.200 235.200 C 296.667 235.556,296.667 235.644,297.200 236.000 C 297.733 236.356,297.733 236.444,297.200 236.800 C 296.667 237.156,296.667 237.244,297.200 237.600 C 297.733 237.956,297.733 238.044,297.200 238.400 C 296.667 238.756,296.667 238.844,297.200 239.200 C 297.733 239.556,297.733 239.644,297.200 240.000 C 296.667 240.356,296.667 240.444,297.200 240.800 C 297.733 241.156,297.733 241.244,297.200 241.600 C 296.667 241.956,296.667 242.044,297.200 242.400 C 297.726 242.751,297.728 242.847,297.213 243.177 C 296.717 243.496,296.763 243.674,297.504 244.316 L 298.382 245.078 297.391 246.009 C 296.846 246.521,296.400 247.268,296.400 247.670 C 296.400 248.071,296.265 248.401,296.100 248.403 C 295.935 248.404,295.350 249.079,294.800 249.903 C 289.078 258.473,283.977 263.459,277.095 267.210 C 274.239 268.767,273.699 269.259,275.881 268.317 C 280.898 266.149,287.919 260.137,292.365 254.200 C 297.950 246.743,309.103 231.702,310.902 229.200 C 311.930 227.770,316.831 221.110,321.792 214.400 C 326.753 207.690,332.453 199.950,334.459 197.200 C 339.986 189.621,340.889 188.909,342.588 190.787 C 343.445 191.734,343.472 192.808,342.698 195.200 C 342.377 196.190,341.889 197.810,341.611 198.800 C 341.334 199.790,340.969 201.050,340.800 201.600 C 340.631 202.150,340.293 203.320,340.050 204.200 C 339.806 205.080,339.237 207.060,338.785 208.600 C 338.333 210.140,337.771 212.120,337.536 213.000 C 337.300 213.880,336.968 215.050,336.799 215.600 C 336.413 216.851,335.543 219.912,329.980 239.600 C 323.667 261.945,318.465 280.360,318.004 282.000 C 317.787 282.770,317.350 284.300,317.033 285.400 C 316.203 288.277,314.163 295.509,308.403 316.000 C 305.786 325.313,303.701 327.400,297.013 327.400 C 294.806 327.400,292.280 327.184,291.400 326.919 C 290.520 326.654,288.180 326.062,286.200 325.602 C 284.220 325.142,281.949 324.593,281.154 324.383 C 280.358 324.172,279.368 324.018,278.954 324.041 C 278.032 324.091,280.437 324.793,282.503 325.078 C 283.329 325.191,284.105 325.445,284.226 325.642 C 284.348 325.839,285.056 326.000,285.800 326.000 C 286.544 326.000,287.264 326.180,287.400 326.400 C 287.536 326.620,288.256 326.800,289.000 326.800 C 289.744 326.800,290.464 326.980,290.600 327.200 C 290.736 327.420,291.431 327.600,292.144 327.600 C 292.857 327.600,293.618 327.778,293.836 327.996 C 294.054 328.214,295.163 328.433,296.300 328.483 C 297.474 328.534,298.159 328.708,297.884 328.886 C 297.518 329.123,297.544 329.292,297.988 329.578 C 298.312 329.786,298.437 330.096,298.267 330.267 C 298.096 330.437,297.796 330.317,297.600 330.000 C 297.404 329.683,297.104 329.563,296.933 329.733 C 296.763 329.904,296.888 330.214,297.212 330.422 C 297.728 330.754,297.727 330.849,297.200 331.200 C 296.667 331.556,296.667 331.644,297.200 332.000 C 297.733 332.356,297.733 332.444,297.200 332.800 C 296.667 333.156,296.667 333.244,297.200 333.600 C 297.733 333.956,297.733 334.044,297.200 334.400 C 296.667 334.756,296.667 334.844,297.200 335.200 C 297.733 335.556,297.733 335.644,297.200 336.000 C 296.667 336.356,296.667 336.444,297.200 336.800 C 297.733 337.156,297.733 337.244,297.200 337.600 C 296.667 337.956,296.667 338.044,297.200 338.400 C 297.733 338.756,297.733 338.844,297.200 339.200 C 296.667 339.556,296.667 339.644,297.200 340.000 C 297.733 340.356,297.733 340.444,297.200 340.800 C 296.667 341.156,296.667 341.244,297.200 341.600 C 297.733 341.956,297.733 342.044,297.200 342.400 C 296.667 342.756,296.667 342.844,297.200 343.200 C 297.733 343.556,297.733 343.644,297.200 344.000 C 296.667 344.356,296.667 344.444,297.200 344.800 C 297.733 345.156,297.733 345.244,297.200 345.600 C 296.667 345.956,296.667 346.044,297.200 346.400 C 297.733 346.756,297.733 346.844,297.200 347.200 C 296.667 347.556,296.667 347.644,297.200 348.000 C 297.733 348.356,297.733 348.444,297.200 348.800 C 296.667 349.156,296.667 349.244,297.200 349.600 C 297.733 349.956,297.733 350.044,297.200 350.400 C 296.667 350.756,296.667 350.844,297.200 351.200 C 297.733 351.556,297.733 351.644,297.200 352.000 C 296.667 352.356,296.667 352.444,297.200 352.800 C 297.733 353.156,297.733 353.244,297.200 353.600 C 296.667 353.956,296.667 354.044,297.200 354.400 C 297.733 354.756,297.733 354.844,297.200 355.200 C 296.667 355.556,296.667 355.644,297.200 356.000 C 297.733 356.356,297.733 356.444,297.200 356.800 C 296.667 357.156,296.667 357.244,297.200 357.600 C 297.733 357.956,297.733 358.044,297.200 358.400 C 296.667 358.756,296.667 358.844,297.200 359.200 C 297.733 359.556,297.733 359.644,297.200 360.000 C 296.667 360.356,296.667 360.444,297.200 360.800 C 297.733 361.156,297.733 361.244,297.200 361.600 C 296.667 361.956,296.667 362.044,297.200 362.400 C 297.733 362.756,297.733 362.844,297.200 363.200 C 296.667 363.556,296.667 363.644,297.200 364.000 C 297.733 364.356,297.733 364.444,297.200 364.800 C 296.667 365.156,296.667 365.244,297.200 365.600 C 297.733 365.956,297.733 366.044,297.200 366.400 C 296.667 366.756,296.667 366.844,297.200 367.200 C 297.733 367.556,297.733 367.644,297.200 368.000 C 296.667 368.356,296.667 368.444,297.200 368.800 C 297.733 369.156,297.733 369.244,297.200 369.600 C 296.667 369.956,296.667 370.044,297.200 370.400 C 297.733 370.756,297.733 370.844,297.200 371.200 C 296.667 371.556,296.667 371.644,297.200 372.000 C 297.733 372.356,297.733 372.444,297.200 372.800 C 296.667 373.156,296.667 373.244,297.200 373.600 C 297.733 373.956,297.733 374.044,297.200 374.400 C 296.667 374.756,296.667 374.844,297.200 375.200 C 297.733 375.556,297.733 375.644,297.200 376.000 C 296.667 376.356,296.667 376.444,297.200 376.800 C 297.733 377.156,297.733 377.244,297.200 377.600 C 296.667 377.956,296.667 378.044,297.200 378.400 C 297.733 378.756,297.733 378.844,297.200 379.200 C 296.667 379.556,296.667 379.644,297.200 380.000 C 297.733 380.356,297.733 380.444,297.200 380.800 C 296.667 381.156,296.667 381.244,297.200 381.600 C 297.733 381.956,297.733 382.044,297.200 382.400 C 296.667 382.756,296.667 382.844,297.200 383.200 C 297.733 383.556,297.733 383.644,297.200 384.000 C 296.667 384.356,296.667 384.444,297.200 384.800 C 297.733 385.156,297.733 385.244,297.200 385.600 C 296.667 385.956,296.667 386.044,297.200 386.400 C 297.733 386.756,297.733 386.844,297.200 387.200 C 296.667 387.556,296.667 387.644,297.200 388.000 C 297.733 388.356,297.733 388.444,297.200 388.800 C 296.667 389.156,296.667 389.244,297.200 389.600 C 297.733 389.956,297.733 390.044,297.200 390.400 C 296.667 390.756,296.667 390.844,297.200 391.200 C 297.733 391.556,297.733 391.644,297.200 392.000 C 296.667 392.356,296.667 392.444,297.200 392.800 C 297.733 393.156,297.733 393.244,297.200 393.600 C 296.667 393.956,296.667 394.044,297.200 394.400 C 297.733 394.756,297.733 394.844,297.200 395.200 C 296.667 395.556,296.667 395.644,297.200 396.000 C 297.733 396.356,297.733 396.444,297.200 396.800 C 296.667 397.156,296.667 397.244,297.200 397.600 C 297.712 397.941,297.717 398.053,297.235 398.364 C 296.755 398.673,296.766 398.823,297.307 399.364 C 298.160 400.217,360.570 400.351,360.967 399.500 C 361.153 399.100,361.247 399.100,361.433 399.500 C 361.562 399.775,361.832 400.000,362.033 400.000 C 362.255 400.000,362.400 320.945,362.400 200.000 L 362.400 0.000 330.433 0.000 C 305.251 0.000,298.417 0.106,298.233 0.500 C 298.047 0.900,297.953 0.900,297.767 0.500 C 297.497 -0.079,296.800 -0.175,296.800 0.367 M215.320 86.400 C 215.320 87.610,215.395 88.105,215.487 87.500 C 215.578 86.895,215.578 85.905,215.487 85.300 C 215.395 84.695,215.320 85.190,215.320 86.400 M349.400 154.400 C 349.536 154.620,350.076 154.800,350.600 154.800 C 351.124 154.800,351.664 154.980,351.800 155.200 C 351.936 155.420,352.381 155.600,352.789 155.600 C 354.571 155.600,359.600 161.699,359.600 163.861 C 359.600 164.378,359.780 164.800,360.000 164.800 C 360.235 164.800,360.400 166.192,360.400 168.176 C 360.400 170.033,360.220 171.664,360.000 171.800 C 359.780 171.936,359.600 172.499,359.600 173.052 C 359.600 175.127,355.939 179.329,352.707 180.966 C 336.927 188.955,323.799 166.411,338.444 156.475 C 341.544 154.372,348.561 153.043,349.400 154.400 M267.000 178.000 C 267.440 178.189,268.070 178.344,268.400 178.344 C 268.778 178.344,268.704 178.217,268.200 178.000 C 267.760 177.811,267.130 177.656,266.800 177.656 C 266.422 177.656,266.496 177.783,267.000 178.000 M269.768 178.894 C 276.121 183.075,277.317 190.592,272.508 196.109 L 271.034 197.800 272.504 196.434 C 277.707 191.600,276.433 181.936,270.200 178.961 C 269.540 178.646,269.346 178.616,269.768 178.894 M253.724 188.600 C 253.726 189.920,253.801 190.412,253.890 189.693 C 253.979 188.974,253.977 187.894,253.886 187.293 C 253.795 186.692,253.722 187.280,253.724 188.600 M136.305 197.483 C 136.802 197.579,137.522 197.575,137.905 197.475 C 138.287 197.375,137.880 197.296,137.000 197.301 C 136.120 197.305,135.807 197.387,136.305 197.483 M262.500 199.476 C 262.885 199.576,263.515 199.576,263.900 199.476 C 264.285 199.375,263.970 199.293,263.200 199.293 C 262.430 199.293,262.115 199.375,262.500 199.476 M265.052 199.516 C 264.944 199.690,265.473 199.761,266.228 199.673 C 266.983 199.585,267.600 199.442,267.600 199.356 C 267.600 199.055,265.245 199.203,265.052 199.516 M264.906 206.800 C 264.899 207.790,265.025 209.770,265.186 211.200 C 265.463 213.666,265.479 213.697,265.496 211.800 C 265.505 210.700,265.379 208.720,265.215 207.400 C 264.946 205.231,264.916 205.173,264.906 206.800 M265.720 218.000 C 265.720 219.210,265.795 219.705,265.887 219.100 C 265.978 218.495,265.978 217.505,265.887 216.900 C 265.795 216.295,265.720 216.790,265.720 218.000 M266.120 222.400 C 266.120 223.610,266.195 224.105,266.287 223.500 C 266.378 222.895,266.378 221.905,266.287 221.300 C 266.195 220.695,266.120 221.190,266.120 222.400 M266.447 227.633 C 266.472 229.045,266.634 231.370,266.806 232.800 C 267.019 234.566,267.052 233.796,266.910 230.400 C 266.691 225.159,266.366 223.219,266.447 227.633 M267.334 238.800 C 267.334 240.450,267.405 241.125,267.491 240.300 C 267.578 239.475,267.578 238.125,267.491 237.300 C 267.405 236.475,267.334 237.150,267.334 238.800 M267.720 244.000 C 267.720 245.210,267.795 245.705,267.887 245.100 C 267.978 244.495,267.978 243.505,267.887 242.900 C 267.795 242.295,267.720 242.790,267.720 244.000 M268.131 249.400 C 268.133 250.940,268.205 251.521,268.292 250.691 C 268.379 249.861,268.377 248.601,268.289 247.891 C 268.200 247.181,268.129 247.860,268.131 249.400 M268.520 254.400 C 268.520 255.610,268.595 256.105,268.687 255.500 C 268.778 254.895,268.778 253.905,268.687 253.300 C 268.595 252.695,268.520 253.190,268.520 254.400 M268.934 260.000 C 268.934 261.650,269.005 262.325,269.091 261.500 C 269.178 260.675,269.178 259.325,269.091 258.500 C 269.005 257.675,268.934 258.350,268.934 260.000 M269.324 265.400 C 269.326 266.720,269.401 267.212,269.490 266.493 C 269.579 265.774,269.577 264.694,269.486 264.093 C 269.395 263.492,269.322 264.080,269.324 265.400 M269.660 269.100 C 269.596 270.481,270.354 270.825,271.600 269.982 C 272.048 269.678,271.929 269.638,271.130 269.824 C 270.186 270.042,270.040 269.938,269.890 268.936 C 269.725 267.834,269.718 267.839,269.660 269.100 M260.033 320.143 C 260.125 320.221,260.830 320.401,261.600 320.542 C 262.585 320.723,262.822 320.682,262.400 320.406 C 261.858 320.050,259.637 319.803,260.033 320.143 M264.033 320.943 C 264.125 321.021,264.830 321.201,265.600 321.342 C 266.585 321.523,266.822 321.482,266.400 321.206 C 265.858 320.850,263.637 320.603,264.033 320.943 M274.200 323.150 C 274.640 323.335,275.720 323.599,276.600 323.737 C 277.615 323.895,277.908 323.864,277.400 323.650 C 276.960 323.465,275.880 323.201,275.000 323.063 C 273.985 322.905,273.692 322.936,274.200 323.150 " stroke="none" fill="#fcb5ee" fill-rule="evenodd"></path><path id="path3" d="M362.400 200.000 L 362.400 400.000 381.200 400.000 L 400.000 400.000 400.000 200.000 L 400.000 0.000 381.200 0.000 L 362.400 0.000 362.400 200.000 M342.099 154.615 C 327.934 159.072,329.080 178.419,343.745 182.401 C 349.482 183.959,359.600 177.993,359.600 173.052 C 359.600 172.499,359.780 171.936,360.000 171.800 C 360.220 171.664,360.400 170.033,360.400 168.176 C 360.400 166.192,360.235 164.800,360.000 164.800 C 359.780 164.800,359.600 164.378,359.600 163.861 C 359.600 161.699,354.571 155.600,352.789 155.600 C 352.381 155.600,351.936 155.420,351.800 155.200 C 351.664 154.980,351.124 154.800,350.600 154.800 C 350.076 154.800,349.536 154.620,349.400 154.400 C 349.049 153.832,344.124 153.977,342.099 154.615 M348.323 154.833 C 361.382 157.847,363.593 175.303,351.600 180.715 C 338.107 186.805,325.924 169.245,336.387 158.788 C 339.766 155.412,344.308 153.907,348.323 154.833 M275.293 188.400 C 275.293 189.170,275.375 189.485,275.476 189.100 C 275.576 188.715,275.576 188.085,275.476 187.700 C 275.375 187.315,275.293 187.630,275.293 188.400 M339.128 191.100 C 338.566 191.705,336.465 194.450,334.460 197.200 C 332.455 199.950,327.287 206.970,322.977 212.800 C 318.667 218.630,314.782 223.940,314.346 224.600 L 313.551 225.800 314.578 224.600 C 315.142 223.940,318.132 219.980,321.221 215.800 C 324.310 211.620,327.057 207.930,327.325 207.600 C 327.592 207.270,328.253 206.370,328.793 205.600 C 329.332 204.830,329.960 203.994,330.187 203.742 C 330.414 203.489,332.580 200.576,335.000 197.268 C 337.420 193.960,339.803 191.032,340.296 190.761 C 342.316 189.651,343.413 192.774,341.990 195.585 C 341.818 195.923,341.456 197.010,341.185 198.000 C 340.914 198.990,340.537 200.340,340.348 201.000 C 340.159 201.660,339.640 203.550,339.194 205.200 C 337.911 209.948,337.529 211.330,337.200 212.400 C 337.031 212.950,336.671 214.210,336.400 215.200 C 336.129 216.190,335.769 217.450,335.600 218.000 C 335.431 218.550,335.094 219.720,334.852 220.600 C 332.543 228.977,331.874 231.379,331.177 233.800 C 330.734 235.340,330.177 237.320,329.939 238.200 C 329.702 239.080,329.330 240.286,329.114 240.880 C 328.897 241.473,328.795 242.185,328.887 242.460 C 328.978 242.735,330.363 238.289,331.963 232.580 C 333.563 226.871,335.194 221.120,335.588 219.800 C 336.233 217.632,336.587 216.392,337.642 212.600 C 337.826 211.940,338.343 210.140,338.791 208.600 C 339.240 207.060,339.806 205.080,340.050 204.200 C 340.293 203.320,340.631 202.150,340.800 201.600 C 340.969 201.050,341.334 199.790,341.611 198.800 C 341.889 197.810,342.377 196.190,342.698 195.200 C 344.089 190.902,341.777 188.248,339.128 191.100 M264.893 210.400 C 264.893 211.170,264.975 211.485,265.076 211.100 C 265.176 210.715,265.176 210.085,265.076 209.700 C 264.975 209.315,264.893 209.630,264.893 210.400 M265.693 221.200 C 265.693 221.970,265.775 222.285,265.876 221.900 C 265.976 221.515,265.976 220.885,265.876 220.500 C 265.775 220.115,265.693 220.430,265.693 221.200 M312.744 226.700 C 311.475 228.232,311.019 228.942,311.481 228.665 C 311.993 228.358,313.769 226.000,313.489 226.000 C 313.398 226.000,313.063 226.315,312.744 226.700 M309.408 231.242 C 308.601 232.365,308.132 233.165,308.366 233.021 C 308.852 232.720,311.332 229.200,311.057 229.200 C 310.957 229.200,310.215 230.119,309.408 231.242 M266.493 232.000 C 266.493 232.770,266.575 233.085,266.676 232.700 C 266.776 232.315,266.776 231.685,266.676 231.300 C 266.575 230.915,266.493 231.230,266.493 232.000 M304.175 238.268 C 303.559 239.076,303.259 239.611,303.509 239.456 C 304.021 239.140,305.753 236.800,305.475 236.800 C 305.376 236.800,304.791 237.461,304.175 238.268 M301.775 241.468 C 301.159 242.276,300.859 242.811,301.109 242.656 C 301.621 242.340,303.353 240.000,303.075 240.000 C 302.976 240.000,302.391 240.661,301.775 241.468 M267.293 242.800 C 267.293 243.570,267.375 243.885,267.476 243.500 C 267.576 243.115,267.576 242.485,267.476 242.100 C 267.375 241.715,267.293 242.030,267.293 242.800 M328.223 244.070 C 328.085 244.581,327.806 245.630,327.604 246.400 C 327.402 247.170,326.892 248.970,326.472 250.400 C 325.155 254.880,324.683 256.817,324.865 256.999 C 324.962 257.095,325.898 254.101,326.945 250.345 C 327.993 246.589,328.765 243.432,328.661 243.328 C 328.558 243.224,328.360 243.558,328.223 244.070 M299.144 245.100 C 297.993 246.489,297.506 247.200,297.704 247.200 C 297.814 247.200,298.386 246.570,298.973 245.800 C 300.063 244.371,300.195 243.832,299.144 245.100 M296.744 248.300 C 295.593 249.689,295.106 250.400,295.304 250.400 C 295.414 250.400,295.986 249.770,296.573 249.000 C 297.663 247.571,297.795 247.032,296.744 248.300 M268.101 253.400 C 268.105 254.280,268.187 254.593,268.283 254.095 C 268.379 253.598,268.375 252.878,268.275 252.495 C 268.175 252.113,268.096 252.520,268.101 253.400 M287.588 259.900 L 285.000 262.600 287.700 260.012 C 290.208 257.607,290.583 257.200,290.288 257.200 C 290.227 257.200,289.012 258.415,287.588 259.900 M324.273 258.153 C 324.123 258.545,324.011 259.166,324.025 259.533 C 324.042 259.975,324.181 259.874,324.437 259.234 C 324.649 258.703,324.761 258.082,324.685 257.854 C 324.609 257.627,324.424 257.761,324.273 258.153 M323.473 260.953 C 323.323 261.345,323.211 261.966,323.225 262.333 C 323.242 262.775,323.381 262.674,323.637 262.034 C 323.849 261.503,323.961 260.882,323.885 260.654 C 323.809 260.427,323.624 260.561,323.473 260.953 M268.901 264.200 C 268.905 265.080,268.987 265.393,269.083 264.895 C 269.179 264.398,269.175 263.678,269.075 263.295 C 268.975 262.913,268.896 263.320,268.901 264.200 M322.673 263.753 C 322.523 264.145,322.411 264.766,322.425 265.133 C 322.442 265.575,322.581 265.474,322.837 264.834 C 323.049 264.303,323.161 263.682,323.085 263.454 C 323.009 263.227,322.824 263.361,322.673 263.753 M281.400 265.050 C 280.681 265.662,280.534 265.905,281.033 265.657 C 281.766 265.293,283.141 263.976,282.749 264.014 C 282.667 264.022,282.060 264.488,281.400 265.050 M321.873 266.553 C 321.723 266.945,321.611 267.566,321.625 267.933 C 321.642 268.375,321.781 268.274,322.037 267.634 C 322.249 267.103,322.361 266.482,322.285 266.254 C 322.209 266.027,322.024 266.161,321.873 266.553 M321.073 269.353 C 320.923 269.745,320.811 270.366,320.825 270.733 C 320.842 271.175,320.981 271.074,321.237 270.434 C 321.449 269.903,321.561 269.282,321.485 269.054 C 321.409 268.827,321.224 268.961,321.073 269.353 M320.273 272.153 C 320.123 272.545,320.011 273.166,320.025 273.533 C 320.042 273.975,320.181 273.874,320.437 273.234 C 320.649 272.703,320.761 272.082,320.685 271.854 C 320.609 271.627,320.424 271.761,320.273 272.153 M319.473 274.953 C 319.323 275.345,319.211 275.966,319.225 276.333 C 319.242 276.775,319.381 276.674,319.637 276.034 C 319.849 275.503,319.961 274.882,319.885 274.654 C 319.809 274.427,319.624 274.561,319.473 274.953 M317.829 281.029 C 317.681 281.615,317.651 282.184,317.761 282.294 C 317.871 282.404,318.081 282.015,318.229 281.429 C 318.376 280.842,318.406 280.273,318.296 280.163 C 318.186 280.053,317.976 280.442,317.829 281.029 M317.000 284.000 C 316.850 284.473,316.817 284.950,316.927 285.060 C 317.037 285.170,317.250 284.873,317.400 284.400 C 317.550 283.927,317.583 283.450,317.473 283.340 C 317.363 283.230,317.150 283.527,317.000 284.000 M316.249 286.615 C 316.112 286.973,316.015 287.566,316.034 287.933 C 316.053 288.300,316.227 288.069,316.421 287.420 C 316.798 286.158,316.665 285.533,316.249 286.615 M315.400 289.600 C 315.250 290.073,315.217 290.550,315.327 290.660 C 315.437 290.770,315.650 290.473,315.800 290.000 C 315.950 289.527,315.983 289.050,315.873 288.940 C 315.763 288.830,315.550 289.127,315.400 289.600 M314.673 292.153 C 314.523 292.545,314.411 293.166,314.425 293.533 C 314.442 293.975,314.581 293.874,314.837 293.234 C 315.049 292.703,315.161 292.082,315.085 291.854 C 315.009 291.627,314.824 291.761,314.673 292.153 M313.829 295.429 C 313.681 296.015,313.638 296.572,313.732 296.666 C 313.827 296.760,314.024 296.358,314.171 295.771 C 314.319 295.185,314.362 294.628,314.268 294.534 C 314.173 294.440,313.976 294.842,313.829 295.429 M313.073 297.753 C 312.923 298.145,312.811 298.766,312.825 299.133 C 312.842 299.575,312.981 299.474,313.237 298.834 C 313.449 298.303,313.561 297.682,313.485 297.454 C 313.409 297.227,313.224 297.361,313.073 297.753 M312.229 301.029 C 312.081 301.615,312.038 302.172,312.132 302.266 C 312.227 302.360,312.424 301.958,312.571 301.371 C 312.719 300.785,312.762 300.228,312.668 300.134 C 312.573 300.040,312.376 300.442,312.229 301.029 M308.200 315.200 C 308.050 315.673,308.017 316.150,308.127 316.260 C 308.237 316.370,308.450 316.073,308.600 315.600 C 308.750 315.127,308.783 314.650,308.673 314.540 C 308.563 314.430,308.350 314.727,308.200 315.200 M307.400 318.000 C 307.250 318.473,307.217 318.950,307.327 319.060 C 307.437 319.170,307.650 318.873,307.800 318.400 C 307.950 317.927,307.983 317.450,307.873 317.340 C 307.763 317.230,307.550 317.527,307.400 318.000 M305.564 322.900 C 305.309 323.395,304.718 324.249,304.250 324.797 L 303.400 325.794 304.341 324.998 C 305.233 324.243,306.642 322.000,306.224 322.000 C 306.116 322.000,305.819 322.405,305.564 322.900 M295.511 327.493 C 296.451 327.578,297.891 327.577,298.711 327.491 C 299.530 327.405,298.760 327.336,297.000 327.337 C 295.240 327.339,294.570 327.409,295.511 327.493 " stroke="none" fill="#fcabf4" fill-rule="evenodd"></path><path id="path4" d="M159.936 126.300 C 159.901 195.765,159.799 252.015,159.711 251.300 C 159.622 250.585,159.386 250.000,159.187 250.000 C 158.988 250.000,158.928 249.732,159.054 249.403 C 159.185 249.063,159.008 248.701,158.642 248.561 C 158.257 248.413,158.000 247.850,158.000 247.157 C 158.000 246.521,157.820 246.000,157.600 246.000 C 157.380 246.000,157.200 245.640,157.200 245.200 C 157.200 244.760,157.020 244.400,156.800 244.400 C 156.580 244.400,156.400 243.961,156.400 243.424 C 156.400 242.887,156.220 242.336,156.000 242.200 C 155.780 242.064,155.600 241.603,155.600 241.176 C 155.600 240.749,155.420 240.400,155.200 240.400 C 154.980 240.400,154.800 239.961,154.800 239.424 C 154.800 238.887,154.620 238.336,154.400 238.200 C 154.180 238.064,154.000 237.603,154.000 237.176 C 154.000 236.749,153.820 236.400,153.600 236.400 C 153.380 236.400,153.200 236.038,153.200 235.595 C 153.200 235.152,153.041 234.477,152.847 234.095 C 152.652 233.713,152.311 232.950,152.087 232.400 C 151.546 231.066,150.634 228.916,149.881 227.200 C 149.543 226.430,149.030 225.080,148.741 224.200 C 148.453 223.320,147.898 222.010,147.508 221.288 C 147.119 220.566,146.800 219.621,146.800 219.188 C 146.800 218.755,146.620 218.400,146.400 218.400 C 146.180 218.400,146.000 218.051,146.000 217.624 C 146.000 217.197,145.820 216.736,145.600 216.600 C 145.380 216.464,145.200 216.001,145.200 215.571 C 145.200 215.141,145.041 214.477,144.847 214.095 C 144.652 213.713,144.310 212.950,144.087 212.400 C 143.863 211.850,143.302 210.547,142.840 209.504 C 142.378 208.462,142.000 207.337,142.000 207.004 C 142.000 206.672,141.820 206.400,141.600 206.400 C 141.380 206.400,141.200 206.068,141.200 205.662 C 141.200 204.617,139.835 203.512,138.737 203.668 C 137.234 203.882,136.750 205.595,136.346 212.138 C 136.139 215.472,135.794 220.540,135.579 223.400 C 135.363 226.260,135.017 230.940,134.810 233.800 C 134.430 239.065,133.890 246.332,133.178 255.800 C 132.963 258.660,132.677 263.025,132.543 265.500 C 132.264 270.653,132.335 270.585,128.753 269.118 C 118.729 265.010,116.282 262.566,98.994 239.400 C 83.414 218.524,69.678 200.100,65.688 194.729 C 62.671 190.668,61.792 190.027,60.410 190.881 C 59.350 191.536,59.035 192.734,59.588 194.009 C 60.006 194.974,60.013 194.969,59.846 193.804 C 59.407 190.743,61.918 190.177,63.856 192.900 C 65.162 194.734,76.943 210.611,77.733 211.600 C 77.996 211.930,78.656 212.830,79.200 213.600 C 79.744 214.370,80.405 215.270,80.670 215.600 C 81.283 216.365,90.257 228.408,97.360 238.000 C 100.375 242.070,103.059 245.670,103.326 246.000 C 103.593 246.330,104.256 247.230,104.800 248.000 C 105.344 248.770,106.008 249.670,106.275 250.000 C 106.543 250.330,107.841 252.064,109.160 253.854 C 115.302 262.191,124.869 269.448,131.242 270.605 L 132.683 270.867 132.948 267.334 C 133.782 256.210,136.078 225.151,136.581 218.200 C 137.438 206.346,137.677 204.796,138.686 204.543 C 139.966 204.221,140.204 204.608,142.734 211.113 C 145.515 218.266,145.421 218.026,145.946 219.300 C 146.196 219.905,146.604 220.895,146.854 221.500 C 147.431 222.900,148.012 224.354,148.454 225.500 C 148.644 225.995,149.004 226.895,149.254 227.500 C 149.503 228.105,149.863 229.005,150.054 229.500 C 150.244 229.995,150.556 230.805,150.746 231.300 C 150.937 231.795,151.281 232.650,151.510 233.200 C 151.740 233.750,154.783 241.386,158.273 250.170 C 161.763 258.953,164.821 266.207,165.069 266.290 C 166.252 266.684,173.161 259.654,175.030 256.154 C 175.487 255.299,176.057 254.240,176.297 253.800 C 177.119 252.292,178.127 249.812,178.488 248.406 C 179.106 246.004,180.511 238.303,181.189 233.600 C 181.427 231.950,181.785 229.610,181.986 228.400 C 182.186 227.190,182.552 224.850,182.800 223.200 C 183.048 221.550,183.412 219.210,183.609 218.000 C 183.807 216.790,184.156 214.585,184.384 213.100 C 185.259 207.420,186.204 201.392,186.814 197.600 C 187.009 196.390,187.363 194.140,187.600 192.600 C 187.837 191.060,188.193 188.810,188.391 187.600 C 188.589 186.390,188.949 184.050,189.191 182.400 C 189.748 178.601,190.356 174.764,190.805 172.200 C 190.999 171.100,191.353 168.850,191.594 167.200 C 192.002 164.398,192.341 162.225,193.214 156.800 C 193.409 155.590,193.763 153.340,194.000 151.800 C 194.237 150.260,194.595 148.010,194.796 146.800 C 194.996 145.590,195.537 142.080,195.997 139.000 C 196.457 135.920,196.996 132.500,197.195 131.400 C 197.394 130.300,197.751 128.050,197.989 126.400 C 198.227 124.750,198.585 122.410,198.786 121.200 C 198.986 119.990,199.352 117.650,199.600 116.000 C 200.775 108.168,201.292 106.791,201.741 110.300 C 201.875 111.345,202.175 113.280,202.407 114.600 C 202.640 115.920,202.993 118.080,203.192 119.400 C 203.392 120.720,203.835 123.600,204.177 125.800 C 204.519 128.000,204.993 131.060,205.230 132.600 C 206.253 139.259,206.480 140.720,206.814 142.800 C 207.009 144.010,207.363 146.260,207.600 147.800 C 207.837 149.340,208.193 151.590,208.391 152.800 C 208.588 154.010,208.951 156.350,209.197 158.000 C 209.443 159.650,209.807 161.900,210.005 163.000 C 210.204 164.100,210.743 167.520,211.203 170.600 C 211.663 173.680,212.204 177.190,212.404 178.400 C 212.605 179.610,212.965 181.860,213.205 183.400 C 213.820 187.353,214.402 191.038,214.814 193.600 C 215.009 194.810,215.365 197.060,215.605 198.600 C 215.845 200.140,216.212 202.480,216.422 203.800 C 216.631 205.120,217.168 208.540,217.615 211.400 C 218.062 214.260,218.602 217.680,218.815 219.000 C 219.163 221.152,220.096 227.111,221.228 234.400 C 223.101 246.472,223.779 249.182,226.075 253.773 C 228.278 258.177,232.267 262.951,235.900 265.531 L 237.199 266.454 237.625 265.333 C 237.860 264.716,238.292 263.669,238.587 263.006 C 238.881 262.343,240.923 257.210,243.125 251.600 C 245.327 245.990,248.334 238.340,249.806 234.600 C 251.278 230.860,253.822 224.380,255.459 220.200 C 261.699 204.265,261.723 204.211,262.735 204.068 C 264.552 203.810,265.094 204.890,265.377 209.325 C 265.520 211.566,265.715 214.300,265.810 215.400 C 265.988 217.456,266.995 230.785,268.408 249.800 C 270.074 272.219,269.735 270.278,271.873 269.585 C 280.053 266.934,287.961 260.145,294.800 249.903 C 295.350 249.079,295.935 248.404,296.100 248.403 C 296.265 248.401,296.400 248.071,296.400 247.670 C 296.400 247.268,296.852 246.515,297.404 245.996 C 298.153 245.292,298.280 244.970,297.904 244.726 C 297.510 244.471,297.531 244.313,298.000 244.000 C 298.533 243.644,298.533 243.556,298.000 243.200 C 297.467 242.844,297.467 242.756,298.000 242.400 C 298.533 242.044,298.533 241.956,298.000 241.600 C 297.467 241.244,297.467 241.156,298.000 240.800 C 298.533 240.444,298.533 240.356,298.000 240.000 C 297.467 239.644,297.467 239.556,298.000 239.200 C 298.533 238.844,298.533 238.756,298.000 238.400 C 297.467 238.044,297.467 237.956,298.000 237.600 C 298.533 237.244,298.533 237.156,298.000 236.800 C 297.467 236.444,297.467 236.356,298.000 236.000 C 298.533 235.644,298.533 235.556,298.000 235.200 C 297.467 234.844,297.467 234.756,298.000 234.400 C 298.533 234.044,298.533 233.956,298.000 233.600 C 297.467 233.244,297.467 233.156,298.000 232.800 C 298.533 232.444,298.533 232.356,298.000 232.000 C 297.467 231.644,297.467 231.556,298.000 231.200 C 298.533 230.844,298.533 230.756,298.000 230.400 C 297.467 230.044,297.467 229.956,298.000 229.600 C 298.533 229.244,298.533 229.156,298.000 228.800 C 297.467 228.444,297.467 228.356,298.000 228.000 C 298.533 227.644,298.533 227.556,298.000 227.200 C 297.467 226.844,297.467 226.756,298.000 226.400 C 298.533 226.044,298.533 225.956,298.000 225.600 C 297.467 225.244,297.467 225.156,298.000 224.800 C 298.533 224.444,298.533 224.356,298.000 224.000 C 297.467 223.644,297.467 223.556,298.000 223.200 C 298.533 222.844,298.533 222.756,298.000 222.400 C 297.467 222.044,297.467 221.956,298.000 221.600 C 298.533 221.244,298.533 221.156,298.000 220.800 C 297.467 220.444,297.467 220.356,298.000 220.000 C 298.533 219.644,298.533 219.556,298.000 219.200 C 297.467 218.844,297.467 218.756,298.000 218.400 C 298.533 218.044,298.533 217.956,298.000 217.600 C 297.467 217.244,297.467 217.156,298.000 216.800 C 298.533 216.444,298.533 216.356,298.000 216.000 C 297.467 215.644,297.467 215.556,298.000 215.200 C 298.533 214.844,298.533 214.756,298.000 214.400 C 297.467 214.044,297.467 213.956,298.000 213.600 C 298.533 213.244,298.533 213.156,298.000 212.800 C 297.467 212.444,297.467 212.356,298.000 212.000 C 298.533 211.644,298.533 211.556,298.000 211.200 C 297.467 210.844,297.467 210.756,298.000 210.400 C 298.533 210.044,298.533 209.956,298.000 209.600 C 297.467 209.244,297.467 209.156,298.000 208.800 C 298.533 208.444,298.533 208.356,298.000 208.000 C 297.467 207.644,297.467 207.556,298.000 207.200 C 298.533 206.844,298.533 206.756,298.000 206.400 C 297.467 206.044,297.467 205.956,298.000 205.600 C 298.533 205.244,298.533 205.156,298.000 204.800 C 297.467 204.444,297.467 204.356,298.000 204.000 C 298.533 203.644,298.533 203.556,298.000 203.200 C 297.467 202.844,297.467 202.756,298.000 202.400 C 298.533 202.044,298.533 201.956,298.000 201.600 C 297.467 201.244,297.467 201.156,298.000 200.800 C 298.533 200.444,298.533 200.356,298.000 200.000 C 297.467 199.644,297.467 199.556,298.000 199.200 C 298.533 198.844,298.533 198.756,298.000 198.400 C 297.467 198.044,297.467 197.956,298.000 197.600 C 298.533 197.244,298.533 197.156,298.000 196.800 C 297.467 196.444,297.467 196.356,298.000 196.000 C 298.533 195.644,298.533 195.556,298.000 195.200 C 297.467 194.844,297.467 194.756,298.000 194.400 C 298.533 194.044,298.533 193.956,298.000 193.600 C 297.467 193.244,297.467 193.156,298.000 192.800 C 298.533 192.444,298.533 192.356,298.000 192.000 C 297.467 191.644,297.467 191.556,298.000 191.200 C 298.533 190.844,298.533 190.756,298.000 190.400 C 297.467 190.044,297.467 189.956,298.000 189.600 C 298.533 189.244,298.533 189.156,298.000 188.800 C 297.467 188.444,297.467 188.356,298.000 188.000 C 298.533 187.644,298.533 187.556,298.000 187.200 C 297.467 186.844,297.467 186.756,298.000 186.400 C 298.533 186.044,298.533 185.956,298.000 185.600 C 297.467 185.244,297.467 185.156,298.000 184.800 C 298.533 184.444,298.533 184.356,298.000 184.000 C 297.467 183.644,297.467 183.556,298.000 183.200 C 298.533 182.844,298.533 182.756,298.000 182.400 C 297.467 182.044,297.467 181.956,298.000 181.600 C 298.533 181.244,298.533 181.156,298.000 180.800 C 297.467 180.444,297.467 180.356,298.000 180.000 C 298.533 179.644,298.533 179.556,298.000 179.200 C 297.467 178.844,297.467 178.756,298.000 178.400 C 298.533 178.044,298.533 177.956,298.000 177.600 C 297.467 177.244,297.467 177.156,298.000 176.800 C 298.533 176.444,298.533 176.356,298.000 176.000 C 297.467 175.644,297.467 175.556,298.000 175.200 C 298.533 174.844,298.533 174.756,298.000 174.400 C 297.467 174.044,297.467 173.956,298.000 173.600 C 298.533 173.244,298.533 173.156,298.000 172.800 C 297.467 172.444,297.467 172.356,298.000 172.000 C 298.533 171.644,298.533 171.556,298.000 171.200 C 297.467 170.844,297.467 170.756,298.000 170.400 C 298.533 170.044,298.533 169.956,298.000 169.600 C 297.467 169.244,297.467 169.156,298.000 168.800 C 298.533 168.444,298.533 168.356,298.000 168.000 C 297.467 167.644,297.467 167.556,298.000 167.200 C 298.533 166.844,298.533 166.756,298.000 166.400 C 297.467 166.044,297.467 165.956,298.000 165.600 C 298.533 165.244,298.533 165.156,298.000 164.800 C 297.467 164.444,297.467 164.356,298.000 164.000 C 298.533 163.644,298.533 163.556,298.000 163.200 C 297.467 162.844,297.467 162.756,298.000 162.400 C 298.533 162.044,298.533 161.956,298.000 161.600 C 297.467 161.244,297.467 161.156,298.000 160.800 C 298.533 160.444,298.533 160.356,298.000 160.000 C 297.467 159.644,297.467 159.556,298.000 159.200 C 298.533 158.844,298.533 158.756,298.000 158.400 C 297.467 158.044,297.467 157.956,298.000 157.600 C 298.533 157.244,298.533 157.156,298.000 156.800 C 297.467 156.444,297.467 156.356,298.000 156.000 C 298.533 155.644,298.533 155.556,298.000 155.200 C 297.467 154.844,297.467 154.756,298.000 154.400 C 298.533 154.044,298.533 153.956,298.000 153.600 C 297.467 153.244,297.467 153.156,298.000 152.800 C 298.533 152.444,298.533 152.356,298.000 152.000 C 297.467 151.644,297.467 151.556,298.000 151.200 C 298.533 150.844,298.533 150.756,298.000 150.400 C 297.467 150.044,297.467 149.956,298.000 149.600 C 298.533 149.244,298.533 149.156,298.000 148.800 C 297.467 148.444,297.467 148.356,298.000 148.000 C 298.533 147.644,298.533 147.556,298.000 147.200 C 297.467 146.844,297.467 146.756,298.000 146.400 C 298.533 146.044,298.533 145.956,298.000 145.600 C 297.467 145.244,297.467 145.156,298.000 144.800 C 298.533 144.444,298.533 144.356,298.000 144.000 C 297.467 143.644,297.467 143.556,298.000 143.200 C 298.533 142.844,298.533 142.756,298.000 142.400 C 297.467 142.044,297.467 141.956,298.000 141.600 C 298.533 141.244,298.533 141.156,298.000 140.800 C 297.467 140.444,297.467 140.356,298.000 140.000 C 298.533 139.644,298.533 139.556,298.000 139.200 C 297.467 138.844,297.467 138.756,298.000 138.400 C 298.533 138.044,298.533 137.956,298.000 137.600 C 297.467 137.244,297.467 137.156,298.000 136.800 C 298.533 136.444,298.533 136.356,298.000 136.000 C 297.467 135.644,297.467 135.556,298.000 135.200 C 298.533 134.844,298.533 134.756,298.000 134.400 C 297.467 134.044,297.467 133.956,298.000 133.600 C 298.533 133.244,298.533 133.156,298.000 132.800 C 297.467 132.444,297.467 132.356,298.000 132.000 C 298.533 131.644,298.533 131.556,298.000 131.200 C 297.467 130.844,297.467 130.756,298.000 130.400 C 298.533 130.044,298.533 129.956,298.000 129.600 C 297.467 129.244,297.467 129.156,298.000 128.800 C 298.533 128.444,298.533 128.356,298.000 128.000 C 297.467 127.644,297.467 127.556,298.000 127.200 C 298.533 126.844,298.533 126.756,298.000 126.400 C 297.467 126.044,297.467 125.956,298.000 125.600 C 298.533 125.244,298.533 125.156,298.000 124.800 C 297.467 124.444,297.467 124.356,298.000 124.000 C 298.533 123.644,298.533 123.556,298.000 123.200 C 297.467 122.844,297.467 122.756,298.000 122.400 C 298.533 122.044,298.533 121.956,298.000 121.600 C 297.467 121.244,297.467 121.156,298.000 120.800 C 298.533 120.444,298.533 120.356,298.000 120.000 C 297.467 119.644,297.467 119.556,298.000 119.200 C 298.533 118.844,298.533 118.756,298.000 118.400 C 297.467 118.044,297.467 117.956,298.000 117.600 C 298.533 117.244,298.533 117.156,298.000 116.800 C 297.467 116.444,297.467 116.356,298.000 116.000 C 298.533 115.644,298.533 115.556,298.000 115.200 C 297.467 114.844,297.467 114.756,298.000 114.400 C 298.533 114.044,298.533 113.956,298.000 113.600 C 297.467 113.244,297.467 113.156,298.000 112.800 C 298.533 112.444,298.533 112.356,298.000 112.000 C 297.467 111.644,297.467 111.556,298.000 111.200 C 298.533 110.844,298.533 110.756,298.000 110.400 C 297.467 110.044,297.467 109.956,298.000 109.600 C 298.533 109.244,298.533 109.156,298.000 108.800 C 297.467 108.444,297.467 108.356,298.000 108.000 C 298.533 107.644,298.533 107.556,298.000 107.200 C 297.467 106.844,297.467 106.756,298.000 106.400 C 298.533 106.044,298.533 105.956,298.000 105.600 C 297.467 105.244,297.467 105.156,298.000 104.800 C 298.533 104.444,298.533 104.356,298.000 104.000 C 297.467 103.644,297.467 103.556,298.000 103.200 C 298.533 102.844,298.533 102.756,298.000 102.400 C 297.467 102.044,297.467 101.956,298.000 101.600 C 298.533 101.244,298.533 101.156,298.000 100.800 C 297.467 100.444,297.467 100.356,298.000 100.000 C 298.533 99.644,298.533 99.556,298.000 99.200 C 297.467 98.844,297.467 98.756,298.000 98.400 C 298.533 98.044,298.533 97.956,298.000 97.600 C 297.467 97.244,297.467 97.156,298.000 96.800 C 298.533 96.444,298.533 96.356,298.000 96.000 C 297.467 95.644,297.467 95.556,298.000 95.200 C 298.533 94.844,298.533 94.756,298.000 94.400 C 297.467 94.044,297.467 93.956,298.000 93.600 C 298.533 93.244,298.533 93.156,298.000 92.800 C 297.467 92.444,297.467 92.356,298.000 92.000 C 298.533 91.644,298.533 91.556,298.000 91.200 C 297.467 90.844,297.467 90.756,298.000 90.400 C 298.533 90.044,298.533 89.956,298.000 89.600 C 297.467 89.244,297.467 89.156,298.000 88.800 C 298.533 88.444,298.533 88.356,298.000 88.000 C 297.467 87.644,297.467 87.556,298.000 87.200 C 298.533 86.844,298.533 86.756,298.000 86.400 C 297.467 86.044,297.467 85.956,298.000 85.600 C 298.533 85.244,298.533 85.156,298.000 84.800 C 297.467 84.444,297.467 84.356,298.000 84.000 C 298.533 83.644,298.533 83.556,298.000 83.200 C 297.467 82.844,297.467 82.756,298.000 82.400 C 298.533 82.044,298.533 81.956,298.000 81.600 C 297.467 81.244,297.467 81.156,298.000 80.800 C 298.533 80.444,298.533 80.356,298.000 80.000 C 297.467 79.644,297.467 79.556,298.000 79.200 C 298.533 78.844,298.533 78.756,298.000 78.400 C 297.467 78.044,297.467 77.956,298.000 77.600 C 298.533 77.244,298.533 77.156,298.000 76.800 C 297.467 76.444,297.467 76.356,298.000 76.000 C 298.533 75.644,298.533 75.556,298.000 75.200 C 297.467 74.844,297.467 74.756,298.000 74.400 C 298.533 74.044,298.533 73.956,298.000 73.600 C 297.467 73.244,297.467 73.156,298.000 72.800 C 298.533 72.444,298.533 72.356,298.000 72.000 C 297.467 71.644,297.467 71.556,298.000 71.200 C 298.533 70.844,298.533 70.756,298.000 70.400 C 297.467 70.044,297.467 69.956,298.000 69.600 C 298.533 69.244,298.533 69.156,298.000 68.800 C 297.467 68.444,297.467 68.356,298.000 68.000 C 298.533 67.644,298.533 67.556,298.000 67.200 C 297.467 66.844,297.467 66.756,298.000 66.400 C 298.533 66.044,298.533 65.956,298.000 65.600 C 297.467 65.244,297.467 65.156,298.000 64.800 C 298.533 64.444,298.533 64.356,298.000 64.000 C 297.467 63.644,297.467 63.556,298.000 63.200 C 298.533 62.844,298.533 62.756,298.000 62.400 C 297.467 62.044,297.467 61.956,298.000 61.600 C 298.533 61.244,298.533 61.156,298.000 60.800 C 297.467 60.444,297.467 60.356,298.000 60.000 C 298.533 59.644,298.533 59.556,298.000 59.200 C 297.467 58.844,297.467 58.756,298.000 58.400 C 298.533 58.044,298.533 57.956,298.000 57.600 C 297.467 57.244,297.467 57.156,298.000 56.800 C 298.533 56.444,298.533 56.356,298.000 56.000 C 297.467 55.644,297.467 55.556,298.000 55.200 C 298.533 54.844,298.533 54.756,298.000 54.400 C 297.467 54.044,297.467 53.956,298.000 53.600 C 298.533 53.244,298.533 53.156,298.000 52.800 C 297.467 52.444,297.467 52.356,298.000 52.000 C 298.533 51.644,298.533 51.556,298.000 51.200 C 297.467 50.844,297.467 50.756,298.000 50.400 C 298.533 50.044,298.533 49.956,298.000 49.600 C 297.467 49.244,297.467 49.156,298.000 48.800 C 298.533 48.444,298.533 48.356,298.000 48.000 C 297.467 47.644,297.467 47.556,298.000 47.200 C 298.533 46.844,298.533 46.756,298.000 46.400 C 297.467 46.044,297.467 45.956,298.000 45.600 C 298.533 45.244,298.533 45.156,298.000 44.800 C 297.467 44.444,297.467 44.356,298.000 44.000 C 298.533 43.644,298.533 43.556,298.000 43.200 C 297.467 42.844,297.467 42.756,298.000 42.400 C 298.533 42.044,298.533 41.956,298.000 41.600 C 297.467 41.244,297.467 41.156,298.000 40.800 C 298.533 40.444,298.533 40.356,298.000 40.000 C 297.467 39.644,297.467 39.556,298.000 39.200 C 298.533 38.844,298.533 38.756,298.000 38.400 C 297.467 38.044,297.467 37.956,298.000 37.600 C 298.533 37.244,298.533 37.156,298.000 36.800 C 297.467 36.444,297.467 36.356,298.000 36.000 C 298.533 35.644,298.533 35.556,298.000 35.200 C 297.467 34.844,297.467 34.756,298.000 34.400 C 298.533 34.044,298.533 33.956,298.000 33.600 C 297.467 33.244,297.467 33.156,298.000 32.800 C 298.533 32.444,298.533 32.356,298.000 32.000 C 297.467 31.644,297.467 31.556,298.000 31.200 C 298.533 30.844,298.533 30.756,298.000 30.400 C 297.467 30.044,297.467 29.956,298.000 29.600 C 298.533 29.244,298.533 29.156,298.000 28.800 C 297.467 28.444,297.467 28.356,298.000 28.000 C 298.533 27.644,298.533 27.556,298.000 27.200 C 297.467 26.844,297.467 26.756,298.000 26.400 C 298.533 26.044,298.533 25.956,298.000 25.600 C 297.467 25.244,297.467 25.156,298.000 24.800 C 298.533 24.444,298.533 24.356,298.000 24.000 C 297.467 23.644,297.467 23.556,298.000 23.200 C 298.533 22.844,298.533 22.756,298.000 22.400 C 297.467 22.044,297.467 21.956,298.000 21.600 C 298.533 21.244,298.533 21.156,298.000 20.800 C 297.467 20.444,297.467 20.356,298.000 20.000 C 298.533 19.644,298.533 19.556,298.000 19.200 C 297.467 18.844,297.467 18.756,298.000 18.400 C 298.533 18.044,298.533 17.956,298.000 17.600 C 297.467 17.244,297.467 17.156,298.000 16.800 C 298.533 16.444,298.533 16.356,298.000 16.000 C 297.467 15.644,297.467 15.556,298.000 15.200 C 298.533 14.844,298.533 14.756,298.000 14.400 C 297.467 14.044,297.467 13.956,298.000 13.600 C 298.533 13.244,298.533 13.156,298.000 12.800 C 297.467 12.444,297.467 12.356,298.000 12.000 C 298.533 11.644,298.533 11.556,298.000 11.200 C 297.467 10.844,297.467 10.756,298.000 10.400 C 298.533 10.044,298.533 9.956,298.000 9.600 C 297.467 9.244,297.467 9.156,298.000 8.800 C 298.533 8.444,298.533 8.356,298.000 8.000 C 297.467 7.644,297.467 7.556,298.000 7.200 C 298.533 6.844,298.533 6.756,298.000 6.400 C 297.467 6.044,297.467 5.956,298.000 5.600 C 298.533 5.244,298.533 5.156,298.000 4.800 C 297.467 4.444,297.467 4.356,298.000 4.000 C 298.533 3.644,298.533 3.556,298.000 3.200 C 297.467 2.844,297.467 2.756,298.000 2.400 C 298.533 2.044,298.533 1.956,298.000 1.600 C 297.473 1.249,297.472 1.154,297.988 0.822 C 298.312 0.614,298.437 0.304,298.267 0.133 C 298.096 -0.037,297.773 0.088,297.548 0.412 C 297.239 0.857,297.090 0.878,296.936 0.500 C 296.775 0.103,282.685 0.000,228.367 0.000 L 160.000 0.000 159.936 126.300 M207.830 74.044 C 220.582 80.194,216.586 99.237,202.400 99.925 C 193.478 100.357,186.232 91.791,188.422 83.400 C 190.718 74.602,199.855 70.198,207.830 74.044 M52.715 154.728 C 52.338 154.878,53.716 155.000,55.777 155.000 C 57.838 155.000,59.316 154.868,59.062 154.706 C 58.489 154.341,53.647 154.358,52.715 154.728 M60.400 155.403 C 60.400 155.515,61.118 155.894,61.995 156.245 C 62.921 156.615,64.543 157.912,65.858 159.332 C 67.104 160.678,67.903 161.366,67.632 160.860 C 66.406 158.569,60.400 154.037,60.400 155.403 M48.600 156.464 C 47.525 157.055,44.833 159.623,44.338 160.530 C 44.119 160.931,44.808 160.382,45.870 159.309 C 46.931 158.236,48.250 157.062,48.800 156.700 C 49.935 155.953,49.806 155.801,48.600 156.464 M42.600 164.000 C 42.450 164.473,42.417 164.950,42.527 165.060 C 42.637 165.170,42.850 164.873,43.000 164.400 C 43.150 163.927,43.183 163.450,43.073 163.340 C 42.963 163.230,42.750 163.527,42.600 164.000 M69.038 165.400 C 69.370 167.384,69.602 167.704,69.594 166.167 C 69.591 165.525,69.404 164.730,69.179 164.400 C 68.886 163.970,68.846 164.254,69.038 165.400 M69.054 170.754 C 68.900 171.718,68.858 172.591,68.961 172.694 C 69.230 172.963,69.715 170.145,69.507 169.522 C 69.412 169.236,69.208 169.790,69.054 170.754 M67.400 175.276 C 65.909 177.768,64.040 179.443,61.420 180.635 C 60.309 181.140,59.631 181.564,59.913 181.577 C 61.864 181.665,66.689 177.722,68.196 174.809 C 69.254 172.762,68.714 173.079,67.400 175.276 M43.763 175.129 C 44.084 175.750,44.660 176.515,45.042 176.829 C 45.434 177.152,45.249 176.661,44.615 175.700 C 43.332 173.755,42.904 173.468,43.763 175.129 M135.200 175.494 C 129.987 176.029,125.937 180.970,125.937 186.794 C 125.937 189.834,126.135 190.465,128.056 193.541 C 130.420 197.326,137.143 199.123,141.504 197.137 C 143.865 196.061,147.600 192.294,147.600 190.987 C 147.600 190.470,147.780 189.936,148.000 189.800 C 148.494 189.495,148.532 184.248,148.047 183.295 C 147.852 182.913,147.468 182.117,147.193 181.526 C 145.261 177.380,140.443 174.956,135.200 175.494 M140.563 176.556 C 145.251 178.188,148.601 183.891,147.536 188.427 C 145.455 197.284,135.862 200.397,129.547 194.264 C 121.521 186.470,129.980 172.872,140.563 176.556 M269.855 178.735 C 278.181 183.031,277.623 195.027,268.918 198.877 C 263.561 201.247,256.511 198.150,254.396 192.498 C 250.876 183.089,260.935 174.132,269.855 178.735 M54.108 182.108 C 55.049 182.342,56.329 182.342,57.508 182.107 C 59.287 181.752,59.197 181.730,56.000 181.732 C 53.076 181.733,52.811 181.786,54.108 182.108 M60.056 195.600 C 60.056 195.930,60.211 196.560,60.400 197.000 C 60.617 197.504,60.744 197.578,60.744 197.200 C 60.744 196.870,60.589 196.240,60.400 195.800 C 60.183 195.296,60.056 195.222,60.056 195.600 M60.812 198.800 C 60.812 199.130,60.987 199.670,61.200 200.000 C 61.545 200.533,61.588 200.533,61.588 200.000 C 61.588 199.670,61.413 199.130,61.200 198.800 C 60.855 198.267,60.812 198.267,60.812 198.800 M61.612 201.600 C 61.612 201.930,61.787 202.470,62.000 202.800 C 62.345 203.333,62.388 203.333,62.388 202.800 C 62.388 202.470,62.213 201.930,62.000 201.600 C 61.655 201.067,61.612 201.067,61.612 201.600 M62.434 204.400 C 62.446 204.730,62.611 205.360,62.800 205.800 L 63.144 206.600 63.166 205.800 C 63.178 205.360,63.013 204.730,62.800 204.400 C 62.455 203.867,62.415 203.867,62.434 204.400 M63.234 207.200 C 63.246 207.530,63.411 208.160,63.600 208.600 L 63.944 209.400 63.966 208.600 C 63.978 208.160,63.813 207.530,63.600 207.200 C 63.255 206.667,63.215 206.667,63.234 207.200 M64.034 210.000 C 64.046 210.330,64.211 210.960,64.400 211.400 L 64.744 212.200 64.766 211.400 C 64.778 210.960,64.613 210.330,64.400 210.000 C 64.055 209.467,64.015 209.467,64.034 210.000 M64.856 212.800 C 64.856 213.130,65.011 213.760,65.200 214.200 C 65.417 214.704,65.544 214.778,65.544 214.400 C 65.544 214.070,65.389 213.440,65.200 213.000 C 64.983 212.496,64.856 212.422,64.856 212.800 M65.634 215.600 C 65.646 215.930,65.811 216.560,66.000 217.000 L 66.344 217.800 66.366 217.000 C 66.378 216.560,66.213 215.930,66.000 215.600 C 65.655 215.067,65.615 215.067,65.634 215.600 M66.434 218.600 C 66.422 219.040,66.587 219.670,66.800 220.000 C 67.314 220.795,67.314 219.796,66.800 218.600 L 66.456 217.800 66.434 218.600 M67.234 221.400 C 67.222 221.840,67.387 222.470,67.600 222.800 C 68.114 223.595,68.114 222.596,67.600 221.400 L 67.256 220.600 67.234 221.400 M68.034 224.400 C 68.046 224.730,68.211 225.360,68.400 225.800 L 68.744 226.600 68.766 225.800 C 68.778 225.360,68.613 224.730,68.400 224.400 C 68.055 223.867,68.015 223.867,68.034 224.400 M68.834 227.200 C 68.846 227.530,69.011 228.160,69.200 228.600 L 69.544 229.400 69.566 228.600 C 69.578 228.160,69.413 227.530,69.200 227.200 C 68.855 226.667,68.815 226.667,68.834 227.200 M69.634 230.000 C 69.646 230.330,69.811 230.960,70.000 231.400 L 70.344 232.200 70.366 231.400 C 70.378 230.960,70.213 230.330,70.000 230.000 C 69.655 229.467,69.615 229.467,69.634 230.000 M70.434 232.800 C 70.446 233.130,70.611 233.760,70.800 234.200 L 71.144 235.000 71.166 234.200 C 71.178 233.760,71.013 233.130,70.800 232.800 C 70.455 232.267,70.415 232.267,70.434 232.800 M71.234 235.600 C 71.246 235.930,71.411 236.560,71.600 237.000 L 71.944 237.800 71.966 237.000 C 71.978 236.560,71.813 235.930,71.600 235.600 C 71.255 235.067,71.215 235.067,71.234 235.600 M72.056 238.400 C 72.056 238.730,72.211 239.360,72.400 239.800 C 72.617 240.304,72.744 240.378,72.744 240.000 C 72.744 239.670,72.589 239.040,72.400 238.600 C 72.183 238.096,72.056 238.022,72.056 238.400 M72.834 241.400 C 72.822 241.840,72.987 242.470,73.200 242.800 C 73.714 243.595,73.714 242.596,73.200 241.400 L 72.856 240.600 72.834 241.400 M73.634 244.200 C 73.622 244.640,73.787 245.270,74.000 245.600 C 74.514 246.395,74.514 245.396,74.000 244.200 L 73.656 243.400 73.634 244.200 M74.434 247.200 C 74.446 247.530,74.611 248.160,74.800 248.600 L 75.144 249.400 75.166 248.600 C 75.178 248.160,75.013 247.530,74.800 247.200 C 74.455 246.667,74.415 246.667,74.434 247.200 M75.234 250.000 C 75.246 250.330,75.411 250.960,75.600 251.400 L 75.944 252.200 75.966 251.400 C 75.978 250.960,75.813 250.330,75.600 250.000 C 75.255 249.467,75.215 249.467,75.234 250.000 M76.034 252.800 C 76.046 253.130,76.211 253.760,76.400 254.200 L 76.744 255.000 76.766 254.200 C 76.778 253.760,76.613 253.130,76.400 252.800 C 76.055 252.267,76.015 252.267,76.034 252.800 M76.834 255.600 C 76.846 255.930,77.011 256.560,77.200 257.000 L 77.544 257.800 77.566 257.000 C 77.578 256.560,77.413 255.930,77.200 255.600 C 76.855 255.067,76.815 255.067,76.834 255.600 M77.634 258.600 C 77.622 259.040,77.787 259.670,78.000 260.000 C 78.514 260.795,78.514 259.796,78.000 258.600 L 77.656 257.800 77.634 258.600 M78.412 261.400 C 78.412 261.840,78.587 262.470,78.800 262.800 C 79.121 263.297,79.188 263.262,79.188 262.600 C 79.188 262.160,79.013 261.530,78.800 261.200 C 78.479 260.703,78.412 260.738,78.412 261.400 M79.234 264.200 C 79.222 264.640,79.387 265.270,79.600 265.600 C 80.114 266.395,80.114 265.396,79.600 264.200 L 79.256 263.400 79.234 264.200 M80.056 267.000 C 80.056 267.440,80.211 268.160,80.400 268.600 L 80.744 269.400 80.744 268.600 C 80.744 268.160,80.589 267.440,80.400 267.000 L 80.056 266.200 80.056 267.000 M80.834 270.000 C 80.846 270.330,81.011 270.960,81.200 271.400 L 81.544 272.200 81.566 271.400 C 81.578 270.960,81.413 270.330,81.200 270.000 C 80.855 269.467,80.815 269.467,80.834 270.000 M81.634 272.800 C 81.646 273.130,81.811 273.760,82.000 274.200 L 82.344 275.000 82.366 274.200 C 82.378 273.760,82.213 273.130,82.000 272.800 C 81.655 272.267,81.615 272.267,81.634 272.800 M82.458 275.800 C 82.463 276.759,83.924 280.849,83.969 280.028 C 83.999 279.468,83.411 277.386,82.775 275.800 L 82.454 275.000 82.458 275.800 M84.027 281.103 C 83.985 281.887,86.120 289.214,86.329 289.004 C 86.432 288.901,86.114 287.328,85.622 285.509 C 84.650 281.916,84.070 280.311,84.027 281.103 M86.405 289.900 C 86.417 290.542,87.929 294.969,87.964 294.462 C 88.009 293.795,86.808 289.600,86.572 289.600 C 86.477 289.600,86.402 289.735,86.405 289.900 M88.027 295.400 C 87.964 296.332,95.153 321.146,95.922 322.650 C 98.583 327.856,103.559 328.935,113.600 326.482 C 116.350 325.810,120.040 324.955,121.800 324.582 C 123.560 324.209,125.720 323.745,126.600 323.551 C 127.480 323.357,129.190 323.002,130.400 322.762 C 131.610 322.522,133.410 322.156,134.400 321.949 C 135.390 321.742,137.148 321.466,138.307 321.336 C 139.466 321.206,140.512 320.942,140.631 320.750 C 140.750 320.557,141.726 320.400,142.800 320.400 C 143.874 320.400,144.864 320.220,145.000 320.000 C 145.136 319.780,146.126 319.600,147.200 319.600 C 148.274 319.600,149.264 319.420,149.400 319.200 C 149.536 318.980,150.706 318.800,152.000 318.800 C 153.296 318.800,154.476 318.600,154.628 318.355 C 154.799 318.078,155.723 317.977,157.068 318.089 C 158.756 318.229,159.316 318.129,159.605 317.634 C 159.834 317.242,159.980 332.805,159.988 358.500 L 160.000 400.000 228.629 400.000 C 290.838 400.000,297.317 399.940,297.893 399.364 C 298.434 398.823,298.445 398.673,297.965 398.364 C 297.483 398.053,297.488 397.941,298.000 397.600 C 298.533 397.244,298.533 397.156,298.000 396.800 C 297.467 396.444,297.467 396.356,298.000 396.000 C 298.533 395.644,298.533 395.556,298.000 395.200 C 297.467 394.844,297.467 394.756,298.000 394.400 C 298.533 394.044,298.533 393.956,298.000 393.600 C 297.467 393.244,297.467 393.156,298.000 392.800 C 298.533 392.444,298.533 392.356,298.000 392.000 C 297.467 391.644,297.467 391.556,298.000 391.200 C 298.533 390.844,298.533 390.756,298.000 390.400 C 297.467 390.044,297.467 389.956,298.000 389.600 C 298.533 389.244,298.533 389.156,298.000 388.800 C 297.467 388.444,297.467 388.356,298.000 388.000 C 298.533 387.644,298.533 387.556,298.000 387.200 C 297.467 386.844,297.467 386.756,298.000 386.400 C 298.533 386.044,298.533 385.956,298.000 385.600 C 297.467 385.244,297.467 385.156,298.000 384.800 C 298.533 384.444,298.533 384.356,298.000 384.000 C 297.467 383.644,297.467 383.556,298.000 383.200 C 298.533 382.844,298.533 382.756,298.000 382.400 C 297.467 382.044,297.467 381.956,298.000 381.600 C 298.533 381.244,298.533 381.156,298.000 380.800 C 297.467 380.444,297.467 380.356,298.000 380.000 C 298.533 379.644,298.533 379.556,298.000 379.200 C 297.467 378.844,297.467 378.756,298.000 378.400 C 298.533 378.044,298.533 377.956,298.000 377.600 C 297.467 377.244,297.467 377.156,298.000 376.800 C 298.533 376.444,298.533 376.356,298.000 376.000 C 297.467 375.644,297.467 375.556,298.000 375.200 C 298.533 374.844,298.533 374.756,298.000 374.400 C 297.467 374.044,297.467 373.956,298.000 373.600 C 298.533 373.244,298.533 373.156,298.000 372.800 C 297.467 372.444,297.467 372.356,298.000 372.000 C 298.533 371.644,298.533 371.556,298.000 371.200 C 297.467 370.844,297.467 370.756,298.000 370.400 C 298.533 370.044,298.533 369.956,298.000 369.600 C 297.467 369.244,297.467 369.156,298.000 368.800 C 298.533 368.444,298.533 368.356,298.000 368.000 C 297.467 367.644,297.467 367.556,298.000 367.200 C 298.533 366.844,298.533 366.756,298.000 366.400 C 297.467 366.044,297.467 365.956,298.000 365.600 C 298.533 365.244,298.533 365.156,298.000 364.800 C 297.467 364.444,297.467 364.356,298.000 364.000 C 298.533 363.644,298.533 363.556,298.000 363.200 C 297.467 362.844,297.467 362.756,298.000 362.400 C 298.533 362.044,298.533 361.956,298.000 361.600 C 297.467 361.244,297.467 361.156,298.000 360.800 C 298.533 360.444,298.533 360.356,298.000 360.000 C 297.467 359.644,297.467 359.556,298.000 359.200 C 298.533 358.844,298.533 358.756,298.000 358.400 C 297.467 358.044,297.467 357.956,298.000 357.600 C 298.533 357.244,298.533 357.156,298.000 356.800 C 297.467 356.444,297.467 356.356,298.000 356.000 C 298.533 355.644,298.533 355.556,298.000 355.200 C 297.467 354.844,297.467 354.756,298.000 354.400 C 298.533 354.044,298.533 353.956,298.000 353.600 C 297.467 353.244,297.467 353.156,298.000 352.800 C 298.533 352.444,298.533 352.356,298.000 352.000 C 297.467 351.644,297.467 351.556,298.000 351.200 C 298.533 350.844,298.533 350.756,298.000 350.400 C 297.467 350.044,297.467 349.956,298.000 349.600 C 298.533 349.244,298.533 349.156,298.000 348.800 C 297.467 348.444,297.467 348.356,298.000 348.000 C 298.533 347.644,298.533 347.556,298.000 347.200 C 297.467 346.844,297.467 346.756,298.000 346.400 C 298.533 346.044,298.533 345.956,298.000 345.600 C 297.467 345.244,297.467 345.156,298.000 344.800 C 298.533 344.444,298.533 344.356,298.000 344.000 C 297.467 343.644,297.467 343.556,298.000 343.200 C 298.533 342.844,298.533 342.756,298.000 342.400 C 297.467 342.044,297.467 341.956,298.000 341.600 C 298.533 341.244,298.533 341.156,298.000 340.800 C 297.467 340.444,297.467 340.356,298.000 340.000 C 298.533 339.644,298.533 339.556,298.000 339.200 C 297.467 338.844,297.467 338.756,298.000 338.400 C 298.533 338.044,298.533 337.956,298.000 337.600 C 297.467 337.244,297.467 337.156,298.000 336.800 C 298.533 336.444,298.533 336.356,298.000 336.000 C 297.467 335.644,297.467 335.556,298.000 335.200 C 298.533 334.844,298.533 334.756,298.000 334.400 C 297.467 334.044,297.467 333.956,298.000 333.600 C 298.533 333.244,298.533 333.156,298.000 332.800 C 297.467 332.444,297.467 332.356,298.000 332.000 C 298.533 331.644,298.533 331.556,298.000 331.200 C 297.467 330.844,297.467 330.756,298.000 330.400 C 298.533 330.044,298.533 329.956,298.000 329.600 C 297.548 329.298,297.519 329.123,297.884 328.886 C 298.159 328.708,297.474 328.534,296.300 328.483 C 295.163 328.433,294.054 328.214,293.836 327.996 C 293.618 327.778,292.857 327.600,292.144 327.600 C 291.431 327.600,290.736 327.420,290.600 327.200 C 290.464 326.980,289.744 326.800,289.000 326.800 C 288.256 326.800,287.536 326.620,287.400 326.400 C 287.264 326.180,286.544 326.000,285.800 326.000 C 285.056 326.000,284.348 325.839,284.226 325.642 C 284.105 325.445,283.329 325.194,282.503 325.082 C 281.676 324.971,279.470 324.495,277.600 324.024 C 272.070 322.632,249.179 318.089,243.200 317.197 C 241.550 316.951,239.210 316.592,238.000 316.399 C 235.305 315.969,230.261 315.347,225.200 314.820 C 223.110 314.603,219.330 314.202,216.800 313.928 C 214.129 313.640,207.167 313.440,200.200 313.451 C 189.222 313.468,184.679 313.717,175.300 314.814 C 164.629 316.062,164.614 316.064,157.400 317.200 C 155.860 317.442,153.430 317.822,152.000 318.043 C 150.570 318.264,148.590 318.600,147.600 318.790 C 146.610 318.979,144.720 319.330,143.400 319.569 C 139.377 320.297,125.979 322.987,123.400 323.585 C 118.634 324.691,114.254 325.735,111.490 326.424 C 102.015 328.788,96.932 326.345,94.792 318.400 C 94.525 317.410,94.166 316.150,93.994 315.600 C 93.822 315.050,93.284 313.070,92.800 311.200 C 92.316 309.330,91.778 307.350,91.606 306.800 C 91.434 306.250,91.071 304.990,90.800 304.000 C 90.529 303.010,90.169 301.750,90.000 301.200 C 89.831 300.650,89.473 299.390,89.204 298.400 C 88.624 296.267,88.065 294.840,88.027 295.400 " stroke="none" fill="#fcc6de" fill-rule="evenodd"></path></g></svg>